<?xml version="1.0" encoding="utf-8"?>
<svg version="1.1" xmlns:xlink="http://www.w3.org/1999/xlink" width="60px" height="60px" xmlns="http://www.w3.org/2000/svg">
  <g transform="matrix(1 0 0 1 -935 -20 )">
    <path d="M 965 20  C 981.8 20  995 33.2  995 50  C 995 66.8  981.8 80  965 80  C 948.2 80  935 66.8  935 50  C 935 33.2  948.2 20  965 20  Z " fill-rule="nonzero" fill="#ffffff" stroke="none" />
    <path d="M 965 20.5  C 981.52 20.5  994.5 33.48  994.5 50  C 994.5 66.52  981.52 79.5  965 79.5  C 948.48 79.5  935.5 66.52  935.5 50  C 935.5 33.48  948.48 20.5  965 20.5  Z " stroke-width="1" stroke="#cccccc" fill="none" />
  </g>
</svg>