<?xml version="1.0" encoding="utf-8"?>
<svg version="1.1" xmlns:xlink="http://www.w3.org/1999/xlink" width="15px" height="15px" xmlns="http://www.w3.org/2000/svg">
  <g transform="matrix(1 0 0 1 -960 -235 )">
    <path d="M 967.5 237  C 970.58 237  973 239.42  973 242.5  C 973 245.58  970.58 248  967.5 248  C 964.42 248  962 245.58  962 242.5  C 962 239.42  964.42 237  967.5 237  Z " fill-rule="nonzero" fill="#ffffff" stroke="none" />
    <path d="M 967.5 236.5  C 970.86 236.5  973.5 239.14  973.5 242.5  C 973.5 245.86  970.86 248.5  967.5 248.5  C 964.14 248.5  961.5 245.86  961.5 242.5  C 961.5 239.14  964.14 236.5  967.5 236.5  Z " stroke-width="3" stroke="#ffcc66" fill="none" />
  </g>
</svg>