<?xml version="1.0" encoding="utf-8"?>
<svg version="1.1" xmlns:xlink="http://www.w3.org/1999/xlink" width="20px" height="20px" xmlns="http://www.w3.org/2000/svg">
  <g transform="matrix(1 0 0 1 -116 -55 )">
    <path d="M 126 55  C 131.6 55  136 59.4  136 65  C 136 70.6  131.6 75  126 75  C 120.4 75  116 70.6  116 65  C 116 59.4  120.4 55  126 55  Z " fill-rule="nonzero" fill="#ffffff" stroke="none" />
    <path d="M 126 55.5  C 131.32 55.5  135.5 59.68  135.5 65  C 135.5 70.32  131.32 74.5  126 74.5  C 120.68 74.5  116.5 70.32  116.5 65  C 116.5 59.68  120.68 55.5  126 55.5  Z " stroke-width="1" stroke="#cccccc" fill="none" />
  </g>
</svg>