<?xml version="1.0" encoding="utf-8"?>
<svg version="1.1" xmlns:xlink="http://www.w3.org/1999/xlink" width="15px" height="15px" xmlns="http://www.w3.org/2000/svg">
  <g transform="matrix(1 0 0 1 -60 -25 )">
    <path d="M 67.5 27  C 70.58 27  73 29.42  73 32.5  C 73 35.58  70.58 38  67.5 38  C 64.42 38  62 35.58  62 32.5  C 62 29.42  64.42 27  67.5 27  Z " fill-rule="nonzero" fill="#ffffff" stroke="none" />
    <path d="M 67.5 26.5  C 70.86 26.5  73.5 29.14  73.5 32.5  C 73.5 35.86  70.86 38.5  67.5 38.5  C 64.14 38.5  61.5 35.86  61.5 32.5  C 61.5 29.14  64.14 26.5  67.5 26.5  Z " stroke-width="3" stroke="#999999" fill="none" />
  </g>
</svg>