<?xml version="1.0" encoding="utf-8"?>
<svg version="1.1" xmlns:xlink="http://www.w3.org/1999/xlink" width="30px" height="30px" xmlns="http://www.w3.org/2000/svg">
  <g transform="matrix(1 0 0 1 -500 -202 )">
    <path d="M 515 202  C 523.4 202  530 208.6  530 217  C 530 225.4  523.4 232  515 232  C 506.6 232  500 225.4  500 217  C 500 208.6  506.6 202  515 202  Z " fill-rule="nonzero" fill="#00d9ad" stroke="none" fill-opacity="0.356862745098039" />
    <path d="M 515 202.5  C 523.12 202.5  529.5 208.88  529.5 217  C 529.5 225.12  523.12 231.5  515 231.5  C 506.88 231.5  500.5 225.12  500.5 217  C 500.5 208.88  506.88 202.5  515 202.5  Z " stroke-width="1" stroke="#666666" fill="none" />
  </g>
</svg>