<?xml version="1.0" encoding="utf-8"?>
<svg version="1.1" xmlns:xlink="http://www.w3.org/1999/xlink" width="20px" height="20px" xmlns="http://www.w3.org/2000/svg">
  <g transform="matrix(1 0 0 1 -340 -1099 )">
    <path d="M 350 1100  C 355.04 1100  359 1103.96  359 1109  C 359 1114.04  355.04 1118  350 1118  C 344.96 1118  341 1114.04  341 1109  C 341 1103.96  344.96 1100  350 1100  Z " fill-rule="nonzero" fill="#00d9ad" stroke="none" fill-opacity="0.356862745098039" />
    <path d="M 350 1100  C 355.04 1100  359 1103.96  359 1109  C 359 1114.04  355.04 1118  350 1118  C 344.96 1118  341 1114.04  341 1109  C 341 1103.96  344.96 1100  350 1100  Z " stroke-width="2" stroke="#999999" fill="none" />
  </g>
</svg>