<?xml version="1.0" encoding="utf-8"?>
<svg version="1.1" xmlns:xlink="http://www.w3.org/1999/xlink" width="30px" height="30px" xmlns="http://www.w3.org/2000/svg">
  <g transform="matrix(1 0 0 1 -540 -202 )">
    <path d="M 555 202  C 563.4 202  570 208.6  570 217  C 570 225.4  563.4 232  555 232  C 546.6 232  540 225.4  540 217  C 540 208.6  546.6 202  555 202  Z " fill-rule="nonzero" fill="#99ff66" stroke="none" />
    <path d="M 555 202.5  C 563.12 202.5  569.5 208.88  569.5 217  C 569.5 225.12  563.12 231.5  555 231.5  C 546.88 231.5  540.5 225.12  540.5 217  C 540.5 208.88  546.88 202.5  555 202.5  Z " stroke-width="1" stroke="#999999" fill="none" />
  </g>
</svg>