<?xml version="1.0" encoding="utf-8"?>
<svg version="1.1" xmlns:xlink="http://www.w3.org/1999/xlink" width="24px" height="24px" xmlns="http://www.w3.org/2000/svg">
  <g transform="matrix(1 0 0 1 -65 -10 )">
    <path d="M 77 11  C 83.16 11  88 15.84  88 22  C 88 28.16  83.16 33  77 33  C 70.84 33  66 28.16  66 22  C 66 15.84  70.84 11  77 11  Z " fill-rule="nonzero" fill="#99ff66" stroke="none" />
    <path d="M 77 11  C 83.16 11  88 15.84  88 22  C 88 28.16  83.16 33  77 33  C 70.84 33  66 28.16  66 22  C 66 15.84  70.84 11  77 11  Z " stroke-width="2" stroke="#999999" fill="none" />
  </g>
</svg>