<?xml version="1.0" encoding="utf-8"?>
<svg version="1.1" xmlns:xlink="http://www.w3.org/1999/xlink" width="20px" height="20px" xmlns="http://www.w3.org/2000/svg">
  <g transform="matrix(1 0 0 1 -415 -1099 )">
    <path d="M 425 1100  C 430.04 1100  434 1103.96  434 1109  C 434 1114.04  430.04 1118  425 1118  C 419.96 1118  416 1114.04  416 1109  C 416 1103.96  419.96 1100  425 1100  Z " fill-rule="nonzero" fill="#f2f2f2" stroke="none" />
    <path d="M 425 1100  C 430.04 1100  434 1103.96  434 1109  C 434 1114.04  430.04 1118  425 1118  C 419.96 1118  416 1114.04  416 1109  C 416 1103.96  419.96 1100  425 1100  Z " stroke-width="2" stroke="#999999" fill="none" />
  </g>
</svg>