<?xml version="1.0" encoding="utf-8"?>
<svg version="1.1" xmlns:xlink="http://www.w3.org/1999/xlink" width="24px" height="24px" xmlns="http://www.w3.org/2000/svg">
  <g transform="matrix(1 0 0 1 -135 -10 )">
    <path d="M 147 11  C 153.16 11  158 15.84  158 22  C 158 28.16  153.16 33  147 33  C 140.84 33  136 28.16  136 22  C 136 15.84  140.84 11  147 11  Z " fill-rule="nonzero" fill="#f2f2f2" stroke="none" />
    <path d="M 147 11  C 153.16 11  158 15.84  158 22  C 158 28.16  153.16 33  147 33  C 140.84 33  136 28.16  136 22  C 136 15.84  140.84 11  147 11  Z " stroke-width="2" stroke="#999999" fill="none" />
  </g>
</svg>