<?xml version="1.0" encoding="utf-8"?>
<svg version="1.1" xmlns:xlink="http://www.w3.org/1999/xlink" width="24px" height="24px" xmlns="http://www.w3.org/2000/svg">
  <g transform="matrix(1 0 0 1 -100 -10 )">
    <path d="M 112 11  C 118.16 11  123 15.84  123 22  C 123 28.16  118.16 33  112 33  C 105.84 33  101 28.16  101 22  C 101 15.84  105.84 11  112 11  Z " fill-rule="nonzero" fill="#ffccff" stroke="none" />
    <path d="M 112 11  C 118.16 11  123 15.84  123 22  C 123 28.16  118.16 33  112 33  C 105.84 33  101 28.16  101 22  C 101 15.84  105.84 11  112 11  Z " stroke-width="2" stroke="#999999" fill="none" />
  </g>
</svg>