<?xml version="1.0" encoding="utf-8"?>
<svg version="1.1" xmlns:xlink="http://www.w3.org/1999/xlink" width="20px" height="20px" xmlns="http://www.w3.org/2000/svg">
  <g transform="matrix(1 0 0 1 -390 -1099 )">
    <path d="M 400 1100  C 405.04 1100  409 1103.96  409 1109  C 409 1114.04  405.04 1118  400 1118  C 394.96 1118  391 1114.04  391 1109  C 391 1103.96  394.96 1100  400 1100  Z " fill-rule="nonzero" fill="#ffccff" stroke="none" />
    <path d="M 400 1100  C 405.04 1100  409 1103.96  409 1109  C 409 1114.04  405.04 1118  400 1118  C 394.96 1118  391 1114.04  391 1109  C 391 1103.96  394.96 1100  400 1100  Z " stroke-width="2" stroke="#999999" fill="none" />
  </g>
</svg>