<?xml version="1.0" encoding="utf-8"?>
<svg version="1.1" xmlns:xlink="http://www.w3.org/1999/xlink" width="12px" height="21px" xmlns="http://www.w3.org/2000/svg">
  <g transform="matrix(1 0 0 1 -2765 -1372 )">
    <path d="M 12.0837876034727 10.3806540697675  C 12.0837876034727 10.5552470930232  12.016488323575 10.7096947674419  11.8818897637796 10.8439970930233  L 2.47345043408041 20.2317296511628  C 2.33885187428496 20.3660319767442  2.18406353052023 20.4331831395349  2.00908540278624 20.4331831395349  C 1.83410727505202 20.4331831395349  1.67931893128753 20.3660319767442  1.54472037149208 20.2317296511628  L 0.535231173026432 19.2244622093023  C 0.400632613230982 19.0901598837209  0.333333333333258 18.9357122093023  0.333333333333258 18.7611191860465  C 0.333333333333258 18.5865261627906  0.400632613230982 18.4320784883722  0.535231173026432 18.2977761627907  L 8.46981627296577 10.3806540697675  L 0.535231173026432 2.46353197674426  C 0.400632613230982 2.32922965116285  0.333333333333258 2.17478197674421  0.333333333333258 2.00018895348833  C 0.333333333333258 1.82559593023259  0.400632613230982 1.67114825581393  0.535231173026432 1.53684593023254  L 1.54472037149208 0.529578488372181  C 1.67931893128753 0.395276162790623  1.83410727505202 0.328125  2.00908540278624 0.328125  C 2.18406353052023 0.328125  2.33885187428496 0.395276162790623  2.47345043408041 0.529578488372181  L 11.8818897637796 9.91731104651157  C 12.016488323575 10.051613372093  12.0837876034727 10.2060610465116  12.0837876034727 10.3806540697675  Z " fill-rule="nonzero" fill="#000000" stroke="none" transform="matrix(1 0 0 1 2765 1372 )" />
  </g>
</svg>