<?xml version="1.0" encoding="utf-8"?>
<svg version="1.1" xmlns:xlink="http://www.w3.org/1999/xlink" width="319px" height="60px" xmlns="http://www.w3.org/2000/svg">
  <g transform="matrix(1 0 0 1 -515 -439 )">
    <path d="M 810.337688636767 439.5  C 810.337688636767 439.5  813.762505655842 439.822083105242  813.762505655842 439.822083105242  C 813.762505655842 439.822083105242  833.461459072621 469  833.461459072621 469  C 833.461459072621 469  813.762505655842 498.177916894758  813.762505655842 498.177916894758  C 813.762505655842 498.177916894758  810.337688636767 498.5  810.337688636767 498.5  C 810.337688636767 498.5  515.5 498.5  515.5 498.5  C 515.5 498.5  515.5 439.5  515.5 439.5  C 515.5 439.5  810.337688636767 439.5  810.337688636767 439.5  Z " fill-rule="nonzero" fill="#ffffff" stroke="none" />
    <path d="M 810.337688636767 439.5  C 810.337688636767 439.5  813.762505655842 439.822083105242  813.762505655842 439.822083105242  C 813.762505655842 439.822083105242  833.461459072621 469  833.461459072621 469  C 833.461459072621 469  813.762505655842 498.177916894758  813.762505655842 498.177916894758  C 813.762505655842 498.177916894758  810.337688636767 498.5  810.337688636767 498.5  C 810.337688636767 498.5  515.5 498.5  515.5 498.5  C 515.5 498.5  515.5 439.5  515.5 439.5  C 515.5 439.5  810.337688636767 439.5  810.337688636767 439.5  Z " stroke-width="1" stroke="#e4e4e4" fill="none" />
  </g>
</svg>