<?xml version="1.0" encoding="utf-8"?>
<svg version="1.1" xmlns:xlink="http://www.w3.org/1999/xlink" width="338px" height="33px" xmlns="http://www.w3.org/2000/svg">
  <g transform="matrix(1 0 0 1 -314 -70 )">
    <path d="M 639.657714700493 70.5  C 639.657714700493 70.5  641.853271522362 70.6071795489966  641.853271522362 70.6071795489966  C 641.853271522362 70.6071795489966  651.482981673135 86.5  651.482981673135 86.5  C 651.482981673135 86.5  641.853271522362 102.392820451003  641.853271522362 102.392820451003  C 641.853271522362 102.392820451003  639.657714700493 102.5  639.657714700493 102.5  C 639.657714700493 102.5  314.5 102.5  314.5 102.5  C 314.5 102.5  314.5 70.5  314.5 70.5  C 314.5 70.5  639.657714700493 70.5  639.657714700493 70.5  Z " fill-rule="nonzero" fill="#c9c9c9" stroke="none" />
    <path d="M 639.657714700493 70.5  C 639.657714700493 70.5  641.853271522362 70.6071795489966  641.853271522362 70.6071795489966  C 641.853271522362 70.6071795489966  651.482981673135 86.5  651.482981673135 86.5  C 651.482981673135 86.5  641.853271522362 102.392820451003  641.853271522362 102.392820451003  C 641.853271522362 102.392820451003  639.657714700493 102.5  639.657714700493 102.5  C 639.657714700493 102.5  314.5 102.5  314.5 102.5  C 314.5 102.5  314.5 70.5  314.5 70.5  C 314.5 70.5  639.657714700493 70.5  639.657714700493 70.5  Z " stroke-width="1" stroke="#ffffff" fill="none" />
  </g>
</svg>