<?xml version="1.0" encoding="utf-8"?>
<svg version="1.1" xmlns:xlink="http://www.w3.org/1999/xlink" width="22px" height="22px" xmlns="http://www.w3.org/2000/svg">
  <g transform="matrix(1 0 0 1 -60 -134 )">
    <path d="M 71 136  C 76.04 136  80 139.96  80 145  C 80 150.04  76.04 154  71 154  C 65.96 154  62 150.04  62 145  C 62 139.96  65.96 136  71 136  Z " fill-rule="nonzero" fill="#ffffff" stroke="none" fill-opacity="0" />
    <path d="M 71 135.5  C 76.32 135.5  80.5 139.68  80.5 145  C 80.5 150.32  76.32 154.5  71 154.5  C 65.68 154.5  61.5 150.32  61.5 145  C 61.5 139.68  65.68 135.5  71 135.5  Z " stroke-width="3" stroke="#00bb9a" fill="none" />
  </g>
</svg>