<?xml version="1.0" encoding="utf-8"?>
<svg version="1.1" xmlns:xlink="http://www.w3.org/1999/xlink" width="250px" height="60px" xmlns="http://www.w3.org/2000/svg">
  <g transform="matrix(1 0 0 1 -265 -430 )">
    <path d="M 492.513959344919 433.5  C 492.513959344919 433.5  493.272539991667 433.59102967761  493.272539991667 433.59102967761  C 493.272539991667 433.59102967761  511.16479630765 460  511.16479630765 460  C 511.16479630765 460  493.272539991667 486.40897032239  493.272539991667 486.40897032239  C 493.272539991667 486.40897032239  492.513959344919 486.5  492.513959344919 486.5  C 492.513959344919 486.5  268.5 486.5  268.5 486.5  C 268.5 486.5  268.5 433.5  268.5 433.5  C 268.5 433.5  492.513959344919 433.5  492.513959344919 433.5  Z " fill-rule="nonzero" fill="#ffffff" stroke="none" />
    <path d="M 491.865119625668 432  C 491.865119625668 432  494.012879995239 432.257731244348  494.012879995239 432.257731244348  C 494.012879995239 432.257731244348  512.808455032943 460  512.808455032943 460  C 512.808455032943 460  494.012879995239 487.742268755652  494.012879995239 487.742268755652  C 494.012879995239 487.742268755652  491.865119625668 488  491.865119625668 488  C 491.865119625668 488  267 488  267 488  C 267 488  267 432  267 432  C 267 432  491.865119625668 432  491.865119625668 432  Z " stroke-width="4" stroke="#9933ff" fill="none" />
  </g>
</svg>