<?xml version="1.0" encoding="utf-8"?>
<svg version="1.1" xmlns:xlink="http://www.w3.org/1999/xlink" width="258px" height="60px" xmlns="http://www.w3.org/2000/svg">
  <g transform="matrix(1 0 0 1 -477 -430 )">
    <path d="M 711.23035628095 430.5  C 711.23035628095 430.5  714.754532258299 430.909787904343  714.754532258299 430.909787904343  C 714.754532258299 430.909787904343  734.45341603961 460  734.45341603961 460  C 734.45341603961 460  714.754532258299 489.090212095657  714.754532258299 489.090212095657  C 714.754532258299 489.090212095657  711.23035628095 489.5  711.23035628095 489.5  C 711.23035628095 489.5  477.5 489.5  477.5 489.5  C 477.5 489.5  477.5 430.5  477.5 430.5  C 477.5 430.5  711.23035628095 430.5  711.23035628095 430.5  Z " fill-rule="nonzero" fill="#ffffff" stroke="none" />
    <path d="M 711.23035628095 430.5  C 711.23035628095 430.5  714.754532258299 430.909787904343  714.754532258299 430.909787904343  C 714.754532258299 430.909787904343  734.45341603961 460  734.45341603961 460  C 734.45341603961 460  714.754532258299 489.090212095657  714.754532258299 489.090212095657  C 714.754532258299 489.090212095657  711.23035628095 489.5  711.23035628095 489.5  C 711.23035628095 489.5  477.5 489.5  477.5 489.5  C 477.5 489.5  477.5 430.5  477.5 430.5  C 477.5 430.5  711.23035628095 430.5  711.23035628095 430.5  Z " stroke-width="1" stroke="#e4e4e4" fill="none" />
  </g>
</svg>