<?xml version="1.0" encoding="utf-8"?>
<svg version="1.1" xmlns:xlink="http://www.w3.org/1999/xlink" width="12px" height="12px" viewBox="60 506  12 12" xmlns="http://www.w3.org/2000/svg">
  <path d="M 66 506  C 69.36 506  72 508.64  72 512  C 72 515.36  69.36 518  66 518  C 62.64 518  60 515.36  60 512  C 60 508.64  62.64 506  66 506  Z " fill-rule="nonzero" fill="#ffffff" stroke="none" />
  <path d="M 66 506.5  C 69.08 506.5  71.5 508.92  71.5 512  C 71.5 515.08  69.08 517.5  66 517.5  C 62.92 517.5  60.5 515.08  60.5 512  C 60.5 508.92  62.92 506.5  66 506.5  Z " stroke-width="1" stroke="#797979" fill="none" />
  <path d="M 66 515  C 64.32 515  63 513.68  63 512  C 63 510.32  64.32 509  66 509  C 67.68 509  69 510.32  69 512  C 69 513.68  67.68 515  66 515  " fill-rule="nonzero" fill="#797979" stroke="none" />
</svg>