<?xml version="1.0" encoding="utf-8"?>
<svg version="1.1" xmlns:xlink="http://www.w3.org/1999/xlink" width="12px" height="12px" viewBox="60 436  12 12" xmlns="http://www.w3.org/2000/svg">
  <path d="M 66 436  C 69.36 436  72 438.64  72 442  C 72 445.36  69.36 448  66 448  C 62.64 448  60 445.36  60 442  C 60 438.64  62.64 436  66 436  Z " fill-rule="nonzero" fill="#ffffff" stroke="none" />
  <path d="M 66 436.5  C 69.08 436.5  71.5 438.92  71.5 442  C 71.5 445.08  69.08 447.5  66 447.5  C 62.92 447.5  60.5 445.08  60.5 442  C 60.5 438.92  62.92 436.5  66 436.5  Z " stroke-width="1" stroke="#797979" fill="none" />
  <path d="M 66 445  C 64.32 445  63 443.68  63 442  C 63 440.32  64.32 439  66 439  C 67.68 439  69 440.32  69 442  C 69 443.68  67.68 445  66 445  " fill-rule="nonzero" fill="#797979" stroke="none" />
</svg>