<?xml version="1.0" encoding="utf-8"?>
<svg version="1.1" xmlns:xlink="http://www.w3.org/1999/xlink" width="574px" height="74px" xmlns="http://www.w3.org/2000/svg">
  <defs>
    <filter x="673px" y="340px" width="574px" height="74px" filterUnits="userSpaceOnUse" id="filter17">
      <feOffset dx="0" dy="0" in="SourceAlpha" result="shadowOffsetInner" />
      <feGaussianBlur stdDeviation="3.5" in="shadowOffsetInner" result="shadowGaussian" />
      <feComposite in2="shadowGaussian" operator="atop" in="SourceAlpha" result="shadowComposite" />
      <feColorMatrix type="matrix" values="0 0 0 0 0.2  0 0 0 0 0.8  0 0 0 0 1  0 0 0 0.749019607843137 0  " in="shadowComposite" />
    </filter>
    <g id="widget18">
      <path d="M 680.5 352  A 4.5 4.5 0 0 1 685 347.5 L 1235 347.5  A 4.5 4.5 0 0 1 1239.5 352 L 1239.5 402  A 4.5 4.5 0 0 1 1235 406.5 L 685 406.5  A 4.5 4.5 0 0 1 680.5 402 L 680.5 352  Z " fill-rule="nonzero" fill="#ffffff" stroke="none" />
      <path d="M 680.5 352  A 4.5 4.5 0 0 1 685 347.5 L 1235 347.5  A 4.5 4.5 0 0 1 1239.5 352 L 1239.5 402  A 4.5 4.5 0 0 1 1235 406.5 L 685 406.5  A 4.5 4.5 0 0 1 680.5 402 L 680.5 352  Z " stroke-width="1" stroke="#52a8ec" fill="none" />
    </g>
  </defs>
  <g transform="matrix(1 0 0 1 -673 -340 )">
    <use xlink:href="#widget18" filter="url(#filter17)" />
    <use xlink:href="#widget18" />
  </g>
</svg>