<?xml version="1.0" encoding="utf-8"?>
<svg version="1.1" xmlns:xlink="http://www.w3.org/1999/xlink" width="560px" height="60px" xmlns="http://www.w3.org/2000/svg">
  <g transform="matrix(1 0 0 1 -680 -347 )">
    <path d="M 681 352  A 4 4 0 0 1 685 348 L 1235 348  A 4 4 0 0 1 1239 352 L 1239 402  A 4 4 0 0 1 1235 406 L 685 406  A 4 4 0 0 1 681 402 L 681 352  Z " fill-rule="nonzero" fill="#ffffff" stroke="none" />
    <path d="M 680.5 352  A 4.5 4.5 0 0 1 685 347.5 L 1235 347.5  A 4.5 4.5 0 0 1 1239.5 352 L 1239.5 402  A 4.5 4.5 0 0 1 1235 406.5 L 685 406.5  A 4.5 4.5 0 0 1 680.5 402 L 680.5 352  Z " stroke-width="1" stroke="#d7d7d7" fill="none" stroke-opacity="0.8" />
  </g>
</svg>