<?xml version="1.0" encoding="utf-8"?>
<svg version="1.1" xmlns:xlink="http://www.w3.org/1999/xlink" width="80px" height="80px" xmlns="http://www.w3.org/2000/svg">
  <g transform="matrix(1 0 0 1 -726 -381 )">
    <path d="M 766 381  C 788.4 381  806 398.6  806 421  C 806 443.4  788.4 461  766 461  C 743.6 461  726 443.4  726 421  C 726 398.6  743.6 381  766 381  Z " fill-rule="nonzero" fill="#ffffff" stroke="none" />
    <path d="M 766 381.5  C 788.12 381.5  805.5 398.88  805.5 421  C 805.5 443.12  788.12 460.5  766 460.5  C 743.88 460.5  726.5 443.12  726.5 421  C 726.5 398.88  743.88 381.5  766 381.5  Z " stroke-width="1" stroke="#797979" fill="none" />
  </g>
</svg>