<?xml version="1.0" encoding="utf-8"?>
<svg version="1.1" xmlns:xlink="http://www.w3.org/1999/xlink" width="20px" height="20px" xmlns="http://www.w3.org/2000/svg">
  <g transform="matrix(1 0 0 1 -760 -272 )">
    <path d="M 770 273  C 775.04 273  779 276.96  779 282  C 779 287.04  775.04 291  770 291  C 764.96 291  761 287.04  761 282  C 761 276.96  764.96 273  770 273  Z " fill-rule="nonzero" fill="#ffffff" stroke="none" />
    <path d="M 770 273  C 775.04 273  779 276.96  779 282  C 779 287.04  775.04 291  770 291  C 764.96 291  761 287.04  761 282  C 761 276.96  764.96 273  770 273  Z " stroke-width="2" stroke="#cccccc" fill="none" />
  </g>
</svg>