<?xml version="1.0" encoding="utf-8"?>
<svg version="1.1" xmlns:xlink="http://www.w3.org/1999/xlink" width="12px" height="12px" viewBox="259 287  12 12" xmlns="http://www.w3.org/2000/svg">
  <path d="M 265 287  C 268.36 287  271 289.64  271 293  C 271 296.36  268.36 299  265 299  C 261.64 299  259 296.36  259 293  C 259 289.64  261.64 287  265 287  Z " fill-rule="nonzero" fill="#ffffff" stroke="none" fill-opacity="0" />
  <path d="M 265 287.5  C 268.08 287.5  270.5 289.92  270.5 293  C 270.5 296.08  268.08 298.5  265 298.5  C 261.92 298.5  259.5 296.08  259.5 293  C 259.5 289.92  261.92 287.5  265 287.5  Z " stroke-width="1" stroke="#797979" fill="none" />
  <path d="M 265 296  C 263.32 296  262 294.68  262 293  C 262 291.32  263.32 290  265 290  C 266.68 290  268 291.32  268 293  C 268 294.68  266.68 296  265 296  " fill-rule="nonzero" fill="#797979" stroke="none" />
</svg>