<?xml version="1.0" encoding="utf-8"?>
<svg version="1.1" xmlns:xlink="http://www.w3.org/1999/xlink" width="214px" height="74px" xmlns="http://www.w3.org/2000/svg">
  <defs>
    <filter x="293px" y="373px" width="214px" height="74px" filterUnits="userSpaceOnUse" id="filter11">
      <feOffset dx="0" dy="0" in="SourceAlpha" result="shadowOffsetInner" />
      <feGaussianBlur stdDeviation="3.5" in="shadowOffsetInner" result="shadowGaussian" />
      <feComposite in2="shadowGaussian" operator="atop" in="SourceAlpha" result="shadowComposite" />
      <feColorMatrix type="matrix" values="0 0 0 0 0.2  0 0 0 0 0.8  0 0 0 0 1  0 0 0 0.749019607843137 0  " in="shadowComposite" />
    </filter>
    <g id="widget12">
      <path d="M 300.5 385  A 4.5 4.5 0 0 1 305 380.5 L 495 380.5  A 4.5 4.5 0 0 1 499.5 385 L 499.5 435  A 4.5 4.5 0 0 1 495 439.5 L 305 439.5  A 4.5 4.5 0 0 1 300.5 435 L 300.5 385  Z " fill-rule="nonzero" fill="#ffffff" stroke="none" />
      <path d="M 300.5 385  A 4.5 4.5 0 0 1 305 380.5 L 495 380.5  A 4.5 4.5 0 0 1 499.5 385 L 499.5 435  A 4.5 4.5 0 0 1 495 439.5 L 305 439.5  A 4.5 4.5 0 0 1 300.5 435 L 300.5 385  Z " stroke-width="1" stroke="#52a8ec" fill="none" />
    </g>
  </defs>
  <g transform="matrix(1 0 0 1 -293 -373 )">
    <use xlink:href="#widget12" filter="url(#filter11)" />
    <use xlink:href="#widget12" />
  </g>
</svg>