<?xml version="1.0" encoding="utf-8"?>
<svg version="1.1" xmlns:xlink="http://www.w3.org/1999/xlink" width="200px" height="60px" xmlns="http://www.w3.org/2000/svg">
  <g transform="matrix(1 0 0 1 -300 -380 )">
    <path d="M 301 385  A 4 4 0 0 1 305 381 L 495 381  A 4 4 0 0 1 499 385 L 499 435  A 4 4 0 0 1 495 439 L 305 439  A 4 4 0 0 1 301 435 L 301 385  Z " fill-rule="nonzero" fill="#ffffff" stroke="none" />
    <path d="M 300.5 385  A 4.5 4.5 0 0 1 305 380.5 L 495 380.5  A 4.5 4.5 0 0 1 499.5 385 L 499.5 435  A 4.5 4.5 0 0 1 495 439.5 L 305 439.5  A 4.5 4.5 0 0 1 300.5 435 L 300.5 385  Z " stroke-width="1" stroke="#d7d7d7" fill="none" stroke-opacity="0.8" />
  </g>
</svg>