<?xml version="1.0" encoding="utf-8"?>
<svg version="1.1" xmlns:xlink="http://www.w3.org/1999/xlink" width="20px" height="20px" xmlns="http://www.w3.org/2000/svg">
  <g transform="matrix(1 0 0 1 -340 -376 )">
    <path d="M 350 376  C 355.6 376  360 380.4  360 386  C 360 391.6  355.6 396  350 396  C 344.4 396  340 391.6  340 386  C 340 380.4  344.4 376  350 376  Z " fill-rule="nonzero" fill="#ffffff" stroke="none" />
    <path d="M 350 376.5  C 355.32 376.5  359.5 380.68  359.5 386  C 359.5 391.32  355.32 395.5  350 395.5  C 344.68 395.5  340.5 391.32  340.5 386  C 340.5 380.68  344.68 376.5  350 376.5  Z " stroke-width="1" stroke="#e4e4e4" fill="none" />
  </g>
</svg>