<?xml version="1.0" encoding="utf-8"?>
<svg version="1.1" xmlns:xlink="http://www.w3.org/1999/xlink" width="30px" height="26px" xmlns="http://www.w3.org/2000/svg">
  <g transform="matrix(1 0 0 1 -1025 -730 )">
    <path d="M 24.7098214285714 13.9479166666667  C 26.8080357142857 11.8263888888889  27.8571428571429 9.81770833333333  27.8571428571429 7.921875  C 27.8571428571429 7.0078125  27.7371651785714 6.20095486111111  27.4972098214286 5.50130208333333  C 27.2572544642857 4.80164930555555  26.9503348214286 4.24587673611111  26.5764508928571 3.833984375  C 26.2025669642857 3.42209201388889  25.7477678571429 3.08637152777778  25.2120535714286 2.82682291666667  C 24.6763392857143 2.56727430555555  24.1517857142857 2.39236111111111  23.6383928571429 2.30208333333333  C 23.125 2.21180555555555  22.578125 2.16666666666667  21.9977678571429 2.16666666666667  C 21.4174107142857 2.16666666666667  20.7924107142857 2.310546875  20.1227678571429 2.59830729166667  C 19.453125 2.88606770833333  18.8364955357143 3.24717881944444  18.2728794642857 3.681640625  C 17.7092633928571 4.11610243055555  17.2265625 4.52235243055555  16.8247767857143 4.900390625  C 16.4229910714286 5.27842881944444  16.0881696428571 5.62543402777778  15.8203125 5.94140625  C 15.6194196428571 6.18967013888889  15.3459821428571 6.31380208333333  15 6.31380208333333  C 14.6540178571429 6.31380208333333  14.3805803571429 6.18967013888889  14.1796875 5.94140625  C 13.9118303571429 5.62543402777778  13.5770089285714 5.27842881944444  13.1752232142857 4.900390625  C 12.7734375 4.52235243055555  12.2907366071429 4.11610243055555  11.7271205357143 3.681640625  C 11.1635044642857 3.24717881944444  10.546875 2.88606770833333  9.87723214285714 2.59830729166667  C 9.20758928571428 2.310546875  8.58258928571429 2.16666666666667  8.00223214285714 2.16666666666667  C 7.421875 2.16666666666667  6.875 2.21180555555555  6.36160714285714 2.30208333333333  C 5.84821428571429 2.39236111111111  5.32366071428571 2.56727430555555  4.78794642857143 2.82682291666667  C 4.25223214285714 3.08637152777778  3.79743303571429 3.42209201388889  3.42354910714286 3.833984375  C 3.04966517857143 4.24587673611111  2.74274553571429 4.80164930555555  2.50279017857143 5.50130208333333  C 2.26283482142857 6.20095486111111  2.14285714285714 7.0078125  2.14285714285714 7.921875  C 2.14285714285714 9.81770833333333  3.18638392857143 11.8207465277778  5.2734375 13.9309895833333  L 15 23.41015625  L 24.7098214285714 13.9479166666667  Z M 27.8738839285714 2.09895833333333  C 29.2912946428571 3.49826388888889  30 5.43923611111111  30 7.921875  C 30 10.4157986111111  28.7220982142857 12.9548611111111  26.1662946428571 15.5390625  L 15.7366071428571 25.6953125  C 15.5357142857143 25.8984375  15.2901785714286 26  15 26  C 14.7098214285714 26  14.4642857142857 25.8984375  14.2633928571429 25.6953125  L 3.81696428571429 15.5052083333333  C 3.70535714285714 15.4149305555556  3.55189732142857 15.2682291666667  3.35658482142857 15.0651041666667  C 3.16127232142857 14.8619791666667  2.8515625 14.4924045138889  2.42745535714286 13.9563802083333  C 2.00334821428571 13.4203559027778  1.62388392857143 12.8702256944444  1.2890625 12.3059895833333  C 0.954241071428571 11.7417534722222  0.655691964285714 11.0590277777778  0.393415178571429 10.2578125  C 0.131138392857143 9.45659722222222  0 8.67795138888889  0 7.921875  C 0 5.43923611111111  0.708705357142857 3.49826388888889  2.12611607142857 2.09895833333333  C 3.54352678571429 0.699652777777777  5.50223214285714 0  8.00223214285714 0  C 8.69419642857143 0  9.40011160714286 0.121310763888887  10.1199776785714 0.363932291666668  C 10.83984375 0.606553819444442  11.5094866071429 0.933810763888887  12.12890625 1.345703125  C 12.7483258928571 1.75759548611111  13.28125 2.14409722222222  13.7276785714286 2.50520833333333  C 14.1741071428571 2.86631944444444  14.5982142857143 3.25  15 3.65625  C 15.4017857142857 3.25  15.8258928571429 2.86631944444444  16.2723214285714 2.50520833333333  C 16.71875 2.14409722222222  17.2516741071429 1.75759548611111  17.87109375 1.345703125  C 18.4905133928571 0.933810763888887  19.16015625 0.606553819444442  19.8800223214286 0.363932291666668  C 20.5998883928571 0.121310763888887  21.3058035714286 0  21.9977678571429 0  C 24.4977678571429 0  26.4564732142857 0.699652777777777  27.8738839285714 2.09895833333333  Z " fill-rule="nonzero" fill="#cc1f9d" stroke="none" transform="matrix(1 0 0 1 1025 730 )" />
  </g>
</svg>