<?xml version="1.0" encoding="utf-8"?>
<svg version="1.1" xmlns:xlink="http://www.w3.org/1999/xlink" width="30px" height="30px" xmlns="http://www.w3.org/2000/svg">
  <g transform="matrix(1 0 0 1 -1115 -727 )">
    <path d="M 9.55915178571428 10.6808035714286  C 9.67075892857143 10.4129464285714  9.67075892857143 10.1395089285714  9.55915178571428 9.86049107142857  C 9.44754464285714 9.58147321428571  9.2578125 9.38616071428571  8.98995535714286 9.27455357142857  C 8.72209821428572 9.16294642857143  8.44866071428572 9.16294642857143  8.16964285714286 9.27455357142857  C 6.96428571428571 9.765625  5.8984375 10.4743303571429  4.97209821428571 11.4006696428571  C 4.04575892857143 12.3270089285714  3.33705357142857 13.3928571428571  2.84598214285714 14.5982142857143  C 2.734375 14.8772321428571  2.734375 15.1506696428571  2.84598214285714 15.4185267857143  C 2.95758928571429 15.6863839285714  3.15290178571429 15.8761160714286  3.43191964285714 15.9877232142857  C 3.57700892857143 16.0435267857143  3.7109375 16.0714285714286  3.83370535714286 16.0714285714286  C 4.30245535714286 16.0714285714286  4.63727678571429 15.8482142857143  4.83816964285714 15.4017857142857  C 5.21763392857143 14.4642857142857  5.76729910714286 13.6356026785714  6.48716517857143 12.9157366071429  C 7.20703125 12.1958705357143  8.03571428571428 11.6462053571429  8.97321428571428 11.2667410714286  C 9.25223214285714 11.1439732142857  9.44754464285714 10.9486607142857  9.55915178571428 10.6808035714286  Z M 21.2611607142857 7.98549107142857  L 25.3292410714286 3.90066964285714  L 26.0993303571429 4.67075892857143  L 22.0145089285714 8.73883928571429  L 23.1529017857143 9.87723214285714  C 23.3649553571429 10.0892857142857  23.4709821428571 10.3431919642857  23.4709821428571 10.6389508928571  C 23.4709821428571 10.9347098214286  23.3649553571429 11.1886160714286  23.1529017857143 11.4006696428571  L 22.0814732142857 12.4720982142857  C 23.0747767857143 14.2689732142857  23.5714285714286 16.1830357142857  23.5714285714286 18.2142857142857  C 23.5714285714286 19.8102678571429  23.26171875 21.3364955357143  22.6422991071429 22.79296875  C 22.0228794642857 24.2494419642857  21.1858258928571 25.5050223214286  20.1311383928571 26.5597098214286  C 19.0764508928571 27.6143973214286  17.8208705357143 28.4514508928571  16.3643973214286 29.0708705357143  C 14.9079241071429 29.6902901785714  13.3816964285714 30  11.7857142857143 30  C 10.1897321428571 30  8.66350446428572 29.6902901785714  7.20703125 29.0708705357143  C 5.75055803571429 28.4514508928571  4.49497767857143 27.6143973214286  3.44029017857143 26.5597098214286  C 2.38560267857143 25.5050223214286  1.54854910714286 24.2494419642857  0.929129464285714 22.79296875  C 0.309709821428571 21.3364955357143  0 19.8102678571429  0 18.2142857142857  C 0 16.6183035714286  0.309709821428571 15.0920758928571  0.929129464285714 13.6356026785714  C 1.54854910714286 12.1791294642857  2.38560267857143 10.9235491071429  3.44029017857143 9.86886160714286  C 4.49497767857143 8.81417410714286  5.75055803571429 7.97712053571429  7.20703125 7.35770089285714  C 8.66350446428572 6.73828125  10.1897321428571 6.42857142857143  11.7857142857143 6.42857142857143  C 13.8169642857143 6.42857142857143  15.7310267857143 6.92522321428571  17.5279017857143 7.91852678571429  L 18.5993303571429 6.84709821428571  C 18.8113839285714 6.63504464285714  19.0652901785714 6.52901785714286  19.3610491071429 6.52901785714286  C 19.6568080357143 6.52901785714286  19.9107142857143 6.63504464285714  20.1227678571429 6.84709821428571  L 21.2611607142857 7.98549107142857  Z M 25.6305803571429 2.58649553571429  C 25.6305803571429 2.73716517857143  25.5747767857143 2.86272321428571  25.4631696428571 2.96316964285714  C 25.3515625 3.07477678571428  25.2287946428571 3.13058035714286  25.0948660714286 3.13058035714286  C 24.9497767857143 3.13058035714286  24.8214285714286 3.07477678571428  24.7098214285714 2.96316964285714  L 23.1863839285714 1.45647321428571  C 23.0859375 1.34486607142857  23.0357142857143 1.21651785714285  23.0357142857143 1.07142857142857  C 23.0357142857143 0.926339285714285  23.0859375 0.79799107142857  23.1863839285714 0.686383928571429  C 23.2979910714286 0.5859375  23.4263392857143 0.535714285714287  23.5714285714286 0.535714285714287  C 23.7165178571429 0.535714285714287  23.8448660714286 0.5859375  23.9564732142857 0.686383928571429  L 25.4631696428571 2.20982142857143  C 25.5747767857143 2.31026785714286  25.6305803571429 2.43582589285714  25.6305803571429 2.58649553571429  Z M 29.4642857142857 6.42857142857143  C 29.4642857142857 6.57366071428571  29.4140625 6.70200892857143  29.3136160714286 6.81361607142857  C 29.1908482142857 6.9140625  29.0625 6.96428571428571  28.9285714285714 6.96428571428571  C 28.7946428571429 6.96428571428571  28.6662946428571 6.9140625  28.5435267857143 6.81361607142857  L 27.0368303571429 5.29017857142857  C 26.9252232142857 5.18973214285714  26.8694196428571 5.06417410714286  26.8694196428571 4.91350446428571  C 26.8694196428571 4.76283482142857  26.9252232142857 4.63727678571429  27.0368303571429 4.53683035714286  C 27.1372767857143 4.42522321428571  27.2628348214286 4.36941964285714  27.4135044642857 4.36941964285714  C 27.5641741071429 4.36941964285714  27.6897321428571 4.42522321428571  27.7901785714286 4.53683035714286  L 29.3136160714286 6.04352678571429  C 29.4140625 6.15513392857142  29.4642857142857 6.28348214285714  29.4642857142857 6.42857142857143  Z M 29.8493303571429 3.36495535714286  C 29.9497767857143 3.46540178571429  30 3.59375  30 3.75  C 30 3.90625  29.9497767857143 4.03459821428571  29.8493303571429 4.13504464285714  C 29.7488839285714 4.23549107142857  29.6205357142857 4.28571428571429  29.4642857142857 4.28571428571429  L 27.8571428571429 4.28571428571429  C 27.7008928571429 4.28571428571429  27.5725446428571 4.23549107142857  27.4720982142857 4.13504464285714  C 27.3716517857143 4.03459821428571  27.3214285714286 3.90625  27.3214285714286 3.75  C 27.3214285714286 3.59375  27.3716517857143 3.46540178571429  27.4720982142857 3.36495535714286  C 27.5725446428571 3.26450892857143  27.7008928571429 3.21428571428571  27.8571428571429 3.21428571428571  L 29.4642857142857 3.21428571428571  C 29.6205357142857 3.21428571428571  29.7488839285714 3.26450892857143  29.8493303571429 3.36495535714286  Z M 26.6350446428571 0.150669642857142  C 26.7354910714286 0.251116071428571  26.7857142857143 0.379464285714283  26.7857142857143 0.535714285714287  L 26.7857142857143 2.14285714285714  C 26.7857142857143 2.29910714285714  26.7354910714286 2.42745535714286  26.6350446428571 2.52790178571429  C 26.5345982142857 2.62834821428571  26.40625 2.67857142857143  26.25 2.67857142857143  C 26.09375 2.67857142857143  25.9654017857143 2.62834821428571  25.8649553571429 2.52790178571429  C 25.7645089285714 2.42745535714286  25.7142857142857 2.29910714285714  25.7142857142857 2.14285714285714  L 25.7142857142857 0.535714285714287  C 25.7142857142857 0.379464285714283  25.7645089285714 0.251116071428571  25.8649553571429 0.150669642857142  C 25.9654017857143 0.0502232142857129  26.09375 0  26.25 0  C 26.40625 0  26.5345982142857 0.0502232142857129  26.6350446428571 0.150669642857142  Z M 29.4642857142857 1.07142857142857  C 29.4642857142857 1.21651785714285  29.4140625 1.34486607142857  29.3136160714286 1.45647321428571  L 27.7901785714286 2.96316964285714  C 27.6785714285714 3.07477678571428  27.5558035714286 3.13058035714286  27.421875 3.13058035714286  C 27.2767857142857 3.13058035714286  27.1484375 3.07477678571428  27.0368303571429 2.96316964285714  C 26.9252232142857 2.86272321428571  26.8694196428571 2.73716517857143  26.8694196428571 2.58649553571429  C 26.8694196428571 2.43582589285714  26.9252232142857 2.31026785714286  27.0368303571429 2.20982142857143  L 28.5435267857143 0.686383928571429  C 28.6551339285714 0.5859375  28.7834821428571 0.535714285714287  28.9285714285714 0.535714285714287  C 29.0736607142857 0.535714285714287  29.2020089285714 0.5859375  29.3136160714286 0.686383928571429  C 29.4140625 0.79799107142857  29.4642857142857 0.926339285714285  29.4642857142857 1.07142857142857  Z " fill-rule="nonzero" fill="#4f4f4f" stroke="none" transform="matrix(1 0 0 1 1115 727 )" />
  </g>
</svg>