<?xml version="1.0" encoding="utf-8"?>
<svg version="1.1" xmlns:xlink="http://www.w3.org/1999/xlink" width="13px" height="13px" xmlns="http://www.w3.org/2000/svg">
  <g transform="matrix(1 0 0 1 -1160 -572 )">
    <path d="M 1166.5 572  C 1170.14 572  1173 574.86  1173 578.5  C 1173 582.14  1170.14 585  1166.5 585  C 1162.86 585  1160 582.14  1160 578.5  C 1160 574.86  1162.86 572  1166.5 572  Z " fill-rule="nonzero" fill="#c1d831" stroke="none" />
    <path d="M 1166.5 572.5  C 1169.86 572.5  1172.5 575.14  1172.5 578.5  C 1172.5 581.86  1169.86 584.5  1166.5 584.5  C 1163.14 584.5  1160.5 581.86  1160.5 578.5  C 1160.5 575.14  1163.14 572.5  1166.5 572.5  Z " stroke-width="1" stroke="#797979" fill="none" />
  </g>
</svg>