<?xml version="1.0" encoding="utf-8"?>
<svg version="1.1" xmlns:xlink="http://www.w3.org/1999/xlink" width="12px" height="12px" viewBox="380 583  12 12" xmlns="http://www.w3.org/2000/svg">
  <path d="M 386 583  C 389.36 583  392 585.64  392 589  C 392 592.36  389.36 595  386 595  C 382.64 595  380 592.36  380 589  C 380 585.64  382.64 583  386 583  Z " fill-rule="nonzero" fill="#ffffff" stroke="none" fill-opacity="0" />
  <path d="M 386 583.5  C 389.08 583.5  391.5 585.92  391.5 589  C 391.5 592.08  389.08 594.5  386 594.5  C 382.92 594.5  380.5 592.08  380.5 589  C 380.5 585.92  382.92 583.5  386 583.5  Z " stroke-width="1" stroke="#797979" fill="none" />
  <path d="M 386 592  C 384.32 592  383 590.68  383 589  C 383 587.32  384.32 586  386 586  C 387.68 586  389 587.32  389 589  C 389 590.68  387.68 592  386 592  " fill-rule="nonzero" fill="#797979" stroke="none" />
</svg>