<?xml version="1.0" encoding="utf-8"?>
<svg version="1.1" xmlns:xlink="http://www.w3.org/1999/xlink" width="12px" height="12px" viewBox="620 583  12 12" xmlns="http://www.w3.org/2000/svg">
  <path d="M 626 583  C 629.36 583  632 585.64  632 589  C 632 592.36  629.36 595  626 595  C 622.64 595  620 592.36  620 589  C 620 585.64  622.64 583  626 583  Z " fill-rule="nonzero" fill="#ffffff" stroke="none" fill-opacity="0" />
  <path d="M 626 583.5  C 629.08 583.5  631.5 585.92  631.5 589  C 631.5 592.08  629.08 594.5  626 594.5  C 622.92 594.5  620.5 592.08  620.5 589  C 620.5 585.92  622.92 583.5  626 583.5  Z " stroke-width="1" stroke="#797979" fill="none" />
  <path d="M 626 592  C 624.32 592  623 590.68  623 589  C 623 587.32  624.32 586  626 586  C 627.68 586  629 587.32  629 589  C 629 590.68  627.68 592  626 592  " fill-rule="nonzero" fill="#797979" stroke="none" />
</svg>