<?xml version="1.0" encoding="utf-8"?>
<svg version="1.1" xmlns:xlink="http://www.w3.org/1999/xlink" width="12px" height="12px" viewBox="460 583  12 12" xmlns="http://www.w3.org/2000/svg">
  <path d="M 466 583  C 469.36 583  472 585.64  472 589  C 472 592.36  469.36 595  466 595  C 462.64 595  460 592.36  460 589  C 460 585.64  462.64 583  466 583  Z " fill-rule="nonzero" fill="#ffffff" stroke="none" fill-opacity="0" />
  <path d="M 466 583.5  C 469.08 583.5  471.5 585.92  471.5 589  C 471.5 592.08  469.08 594.5  466 594.5  C 462.92 594.5  460.5 592.08  460.5 589  C 460.5 585.92  462.92 583.5  466 583.5  Z " stroke-width="1" stroke="#797979" fill="none" />
  <path d="M 466 592  C 464.32 592  463 590.68  463 589  C 463 587.32  464.32 586  466 586  C 467.68 586  469 587.32  469 589  C 469 590.68  467.68 592  466 592  " fill-rule="nonzero" fill="#797979" stroke="none" />
</svg>