<?xml version="1.0" encoding="utf-8"?>
<svg version="1.1" xmlns:xlink="http://www.w3.org/1999/xlink" width="12px" height="12px" viewBox="300 583  12 12" xmlns="http://www.w3.org/2000/svg">
  <path d="M 306 583  C 309.36 583  312 585.64  312 589  C 312 592.36  309.36 595  306 595  C 302.64 595  300 592.36  300 589  C 300 585.64  302.64 583  306 583  Z " fill-rule="nonzero" fill="#ffffff" stroke="none" fill-opacity="0" />
  <path d="M 306 583.5  C 309.08 583.5  311.5 585.92  311.5 589  C 311.5 592.08  309.08 594.5  306 594.5  C 302.92 594.5  300.5 592.08  300.5 589  C 300.5 585.92  302.92 583.5  306 583.5  Z " stroke-width="1" stroke="#797979" fill="none" />
  <path d="M 306 592  C 304.32 592  303 590.68  303 589  C 303 587.32  304.32 586  306 586  C 307.68 586  309 587.32  309 589  C 309 590.68  307.68 592  306 592  " fill-rule="nonzero" fill="#797979" stroke="none" />
</svg>