<?xml version="1.0" encoding="utf-8"?>
<svg version="1.1" xmlns:xlink="http://www.w3.org/1999/xlink" width="774px" height="74px" xmlns="http://www.w3.org/2000/svg">
  <defs>
    <filter x="253px" y="333px" width="774px" height="74px" filterUnits="userSpaceOnUse" id="filter9">
      <feOffset dx="0" dy="0" in="SourceAlpha" result="shadowOffsetInner" />
      <feGaussianBlur stdDeviation="3.5" in="shadowOffsetInner" result="shadowGaussian" />
      <feComposite in2="shadowGaussian" operator="atop" in="SourceAlpha" result="shadowComposite" />
      <feColorMatrix type="matrix" values="0 0 0 0 0.2  0 0 0 0 0.8  0 0 0 0 1  0 0 0 0.749019607843137 0  " in="shadowComposite" />
    </filter>
    <g id="widget10">
      <path d="M 260.5 345  A 4.5 4.5 0 0 1 265 340.5 L 1015 340.5  A 4.5 4.5 0 0 1 1019.5 345 L 1019.5 395  A 4.5 4.5 0 0 1 1015 399.5 L 265 399.5  A 4.5 4.5 0 0 1 260.5 395 L 260.5 345  Z " fill-rule="nonzero" fill="#ffffff" stroke="none" />
      <path d="M 260.5 345  A 4.5 4.5 0 0 1 265 340.5 L 1015 340.5  A 4.5 4.5 0 0 1 1019.5 345 L 1019.5 395  A 4.5 4.5 0 0 1 1015 399.5 L 265 399.5  A 4.5 4.5 0 0 1 260.5 395 L 260.5 345  Z " stroke-width="1" stroke="#52a8ec" fill="none" />
    </g>
  </defs>
  <g transform="matrix(1 0 0 1 -253 -333 )">
    <use xlink:href="#widget10" filter="url(#filter9)" />
    <use xlink:href="#widget10" />
  </g>
</svg>