<?xml version="1.0" encoding="utf-8"?>
<svg version="1.1" xmlns:xlink="http://www.w3.org/1999/xlink" width="760px" height="60px" xmlns="http://www.w3.org/2000/svg">
  <g transform="matrix(1 0 0 1 -260 -340 )">
    <path d="M 261 345  A 4 4 0 0 1 265 341 L 1015 341  A 4 4 0 0 1 1019 345 L 1019 395  A 4 4 0 0 1 1015 399 L 265 399  A 4 4 0 0 1 261 395 L 261 345  Z " fill-rule="nonzero" fill="#ffffff" stroke="none" />
    <path d="M 260.5 345  A 4.5 4.5 0 0 1 265 340.5 L 1015 340.5  A 4.5 4.5 0 0 1 1019.5 345 L 1019.5 395  A 4.5 4.5 0 0 1 1015 399.5 L 265 399.5  A 4.5 4.5 0 0 1 260.5 395 L 260.5 345  Z " stroke-width="1" stroke="#d7d7d7" fill="none" stroke-opacity="0.8" />
  </g>
</svg>