<?xml version="1.0" encoding="utf-8"?>
<svg version="1.1" xmlns:xlink="http://www.w3.org/1999/xlink" width="250px" height="60px" xmlns="http://www.w3.org/2000/svg">
  <g transform="matrix(1 0 0 1 -925 -430 )">
    <path d="M 1151.21627990642 430.5  C 1151.21627990642 430.5  1154.75321999881 430.924432811087  1154.75321999881 430.924432811087  C 1154.75321999881 430.924432811087  1174.45211375824 460  1174.45211375824 460  C 1174.45211375824 460  1154.75321999881 489.075567188913  1154.75321999881 489.075567188913  C 1154.75321999881 489.075567188913  1151.21627990642 489.5  1151.21627990642 489.5  C 1151.21627990642 489.5  925.5 489.5  925.5 489.5  C 925.5 489.5  925.5 430.5  925.5 430.5  C 925.5 430.5  1151.21627990642 430.5  1151.21627990642 430.5  Z " fill-rule="nonzero" fill="#ffffff" stroke="none" />
    <path d="M 1151.21627990642 430.5  C 1151.21627990642 430.5  1154.75321999881 430.924432811087  1154.75321999881 430.924432811087  C 1154.75321999881 430.924432811087  1174.45211375824 460  1174.45211375824 460  C 1174.45211375824 460  1154.75321999881 489.075567188913  1154.75321999881 489.075567188913  C 1154.75321999881 489.075567188913  1151.21627990642 489.5  1151.21627990642 489.5  C 1151.21627990642 489.5  925.5 489.5  925.5 489.5  C 925.5 489.5  925.5 430.5  925.5 430.5  C 925.5 430.5  1151.21627990642 430.5  1151.21627990642 430.5  Z " stroke-width="1" stroke="#d7d7d7" fill="none" />
  </g>
</svg>