<?xml version="1.0" encoding="utf-8"?>
<svg version="1.1" xmlns:xlink="http://www.w3.org/1999/xlink" width="295px" height="60px" xmlns="http://www.w3.org/2000/svg">
  <g transform="matrix(1 0 0 1 0 -430 )">
    <path d="M 271.295459513167 430.5  C 271.295459513167 430.5  274.759737416626 430.852299447809  274.759737416626 430.852299447809  C 274.759737416626 430.852299447809  294.458641569882 460  294.458641569882 460  C 294.458641569882 460  274.759737416626 489.147700552191  274.759737416626 489.147700552191  C 274.759737416626 489.147700552191  271.295459513167 489.5  271.295459513167 489.5  C 271.295459513167 489.5  0.499999999999959 489.5  0.499999999999959 489.5  C 0.499999999999959 489.5  0.5 430.5  0.5 430.5  C 0.5 430.5  271.295459513167 430.5  271.295459513167 430.5  Z " fill-rule="nonzero" fill="#ffffff" stroke="none" />
    <path d="M 271.295459513167 430.5  C 271.295459513167 430.5  274.759737416626 430.852299447809  274.759737416626 430.852299447809  C 274.759737416626 430.852299447809  294.458641569882 460  294.458641569882 460  C 294.458641569882 460  274.759737416626 489.147700552191  274.759737416626 489.147700552191  C 274.759737416626 489.147700552191  271.295459513167 489.5  271.295459513167 489.5  C 271.295459513167 489.5  0.499999999999959 489.5  0.499999999999959 489.5  C 0.499999999999959 489.5  0.5 430.5  0.5 430.5  C 0.5 430.5  271.295459513167 430.5  271.295459513167 430.5  Z " stroke-width="1" stroke="#797979" fill="none" />
  </g>
</svg>