<?xml version="1.0" encoding="utf-8"?>
<svg version="1.1" xmlns:xlink="http://www.w3.org/1999/xlink" width="73px" height="73px" xmlns="http://www.w3.org/2000/svg">
  <g transform="matrix(1 0 0 1 -221 -551 )">
    <path d="M 257.5 552  C 277.38 552  293 567.62  293 587.5  C 293 607.38  277.38 623  257.5 623  C 237.62 623  222 607.38  222 587.5  C 222 567.62  237.62 552  257.5 552  Z " fill-rule="nonzero" fill="#ffffff" stroke="none" />
    <path d="M 257.5 552  C 277.38 552  293 567.62  293 587.5  C 293 607.38  277.38 623  257.5 623  C 237.62 623  222 607.38  222 587.5  C 222 567.62  237.62 552  257.5 552  Z " stroke-width="2" stroke="#e4e4e4" fill="none" />
  </g>
</svg>