<?xml version="1.0" encoding="utf-8"?>
<svg version="1.1" xmlns:xlink="http://www.w3.org/1999/xlink" width="310px" height="60px" xmlns="http://www.w3.org/2000/svg">
  <g transform="matrix(1 0 0 1 -235 -625 )">
    <path d="M 521.321852715417 625.5  C 521.321852715417 625.5  524.761514940896 625.83287053795  524.761514940896 625.83287053795  C 524.761514940896 625.83287053795  544.460447693043 655  544.460447693043 655  C 544.460447693043 655  524.761514940896 684.16712946205  524.761514940896 684.16712946205  C 524.761514940896 684.16712946205  521.321852715417 684.5  521.321852715417 684.5  C 521.321852715417 684.5  235.5 684.5  235.5 684.5  C 235.5 684.5  235.5 625.5  235.5 625.5  C 235.5 625.5  521.321852715417 625.5  521.321852715417 625.5  Z " fill-rule="nonzero" fill="#ffffff" stroke="none" />
    <path d="M 521.321852715417 625.5  C 521.321852715417 625.5  524.761514940896 625.83287053795  524.761514940896 625.83287053795  C 524.761514940896 625.83287053795  544.460447693043 655  544.460447693043 655  C 544.460447693043 655  524.761514940896 684.16712946205  524.761514940896 684.16712946205  C 524.761514940896 684.16712946205  521.321852715417 684.5  521.321852715417 684.5  C 521.321852715417 684.5  235.5 684.5  235.5 684.5  C 235.5 684.5  235.5 625.5  235.5 625.5  C 235.5 625.5  521.321852715417 625.5  521.321852715417 625.5  Z " stroke-width="1" stroke="#797979" fill="none" />
  </g>
</svg>