<?xml version="1.0" encoding="utf-8"?>
<svg version="1.1" xmlns:xlink="http://www.w3.org/1999/xlink" width="32px" height="28px" xmlns="http://www.w3.org/2000/svg">
  <g transform="matrix(1 0 0 1 -559 -181 )">
    <path d="M 26.3571428571429 15.0208333333333  C 28.5952380952381 12.7361111111111  29.7142857142857 10.5729166666667  29.7142857142857 8.53125  C 29.7142857142857 7.546875  29.5863095238095 6.67795138888889  29.3303571428571 5.92447916666667  C 29.0744047619048 5.17100694444444  28.7470238095238 4.57248263888889  28.3482142857143 4.12890625  C 27.9494047619048 3.68532986111111  27.4642857142857 3.32378472222222  26.8928571428571 3.04427083333333  C 26.3214285714286 2.76475694444444  25.7619047619048 2.57638888888889  25.2142857142857 2.47916666666667  C 24.6666666666667 2.38194444444444  24.0833333333333 2.33333333333333  23.4642857142857 2.33333333333333  C 22.8452380952381 2.33333333333333  22.1785714285714 2.48828125  21.4642857142857 2.79817708333333  C 20.75 3.10807291666667  20.0922619047619 3.49696180555555  19.4910714285714 3.96484375  C 18.889880952381 4.43272569444444  18.375 4.87022569444444  17.9464285714286 5.27734375  C 17.5178571428571 5.68446180555555  17.1607142857143 6.05815972222222  16.875 6.3984375  C 16.6607142857143 6.66579861111111  16.3690476190476 6.79947916666667  16 6.79947916666667  C 15.6309523809524 6.79947916666667  15.3392857142857 6.66579861111111  15.125 6.3984375  C 14.8392857142857 6.05815972222222  14.4821428571429 5.68446180555555  14.0535714285714 5.27734375  C 13.625 4.87022569444444  13.110119047619 4.43272569444444  12.5089285714286 3.96484375  C 11.9077380952381 3.49696180555555  11.25 3.10807291666667  10.5357142857143 2.79817708333333  C 9.82142857142857 2.48828125  9.15476190476191 2.33333333333333  8.53571428571429 2.33333333333333  C 7.91666666666667 2.33333333333333  7.33333333333333 2.38194444444444  6.78571428571429 2.47916666666667  C 6.23809523809524 2.57638888888889  5.67857142857143 2.76475694444444  5.10714285714286 3.04427083333333  C 4.53571428571429 3.32378472222222  4.05059523809524 3.68532986111111  3.65178571428571 4.12890625  C 3.25297619047619 4.57248263888889  2.92559523809524 5.17100694444444  2.66964285714286 5.92447916666667  C 2.41369047619048 6.67795138888889  2.28571428571429 7.546875  2.28571428571429 8.53125  C 2.28571428571429 10.5729166666667  3.39880952380952 12.7300347222222  5.625 15.0026041666667  L 16 25.2109375  L 26.3571428571429 15.0208333333333  Z M 29.7321428571429 2.26041666666667  C 31.2440476190476 3.76736111111111  32 5.85763888888889  32 8.53125  C 32 11.2170138888889  30.6369047619048 13.9513888888889  27.9107142857143 16.734375  L 16.7857142857143 27.671875  C 16.5714285714286 27.890625  16.3095238095238 28  16 28  C 15.6904761904762 28  15.4285714285714 27.890625  15.2142857142857 27.671875  L 4.07142857142857 16.6979166666667  C 3.95238095238095 16.6006944444444  3.78869047619048 16.4427083333333  3.58035714285714 16.2239583333333  C 3.37202380952381 16.0052083333333  3.04166666666667 15.6072048611111  2.58928571428571 15.0299479166667  C 2.13690476190476 14.4526909722222  1.73214285714286 13.8602430555556  1.375 13.2526041666667  C 1.01785714285714 12.6449652777778  0.699404761904762 11.9097222222222  0.419642857142857 11.046875  C 0.139880952380952 10.1840277777778  0 9.34548611111111  0 8.53125  C 0 5.85763888888889  0.755952380952381 3.76736111111111  2.26785714285714 2.26041666666667  C 3.77976190476191 0.753472222222222  5.86904761904762 0  8.53571428571429 0  C 9.27380952380952 0  10.0267857142857 0.130642361111109  10.7946428571429 0.391927083333334  C 11.5625 0.653211805555553  12.2767857142857 1.00564236111111  12.9375 1.44921875  C 13.5982142857143 1.89279513888889  14.1666666666667 2.30902777777778  14.6428571428571 2.69791666666667  C 15.1190476190476 3.08680555555555  15.5714285714286 3.5  16 3.9375  C 16.4285714285714 3.5  16.8809523809524 3.08680555555555  17.3571428571429 2.69791666666667  C 17.8333333333333 2.30902777777778  18.4017857142857 1.89279513888889  19.0625 1.44921875  C 19.7232142857143 1.00564236111111  20.4375 0.653211805555553  21.2053571428571 0.391927083333334  C 21.9732142857143 0.130642361111109  22.7261904761905 0  23.4642857142857 0  C 26.1309523809524 0  28.2202380952381 0.753472222222222  29.7321428571429 2.26041666666667  Z " fill-rule="nonzero" fill="#000000" stroke="none" transform="matrix(1 0 0 1 559 181 )" />
  </g>
</svg>