<?xml version="1.0" encoding="utf-8"?>
<svg version="1.1" xmlns:xlink="http://www.w3.org/1999/xlink" width="160px" height="25px" xmlns="http://www.w3.org/2000/svg">
  <g transform="matrix(1 0 0 1 -830 -68 )">
    <path d="M 831 80.5  A 11.5 11.5 0 0 1 842.5 69 L 977.5 69  A 11.5 11.5 0 0 1 989 80.5 A 11.5 11.5 0 0 1 977.5 92 L 842.5 92  A 11.5 11.5 0 0 1 831 80.5 Z " fill-rule="nonzero" fill="#ffffff" stroke="none" />
    <path d="M 830.5 80.5  A 12 12 0 0 1 842.5 68.5 L 977.5 68.5  A 12 12 0 0 1 989.5 80.5 A 12 12 0 0 1 977.5 92.5 L 842.5 92.5  A 12 12 0 0 1 830.5 80.5 Z " stroke-width="1" stroke="#d7d7d7" fill="none" stroke-opacity="0.8" />
  </g>
</svg>