<?xml version="1.0" encoding="utf-8"?>
<svg version="1.1" xmlns:xlink="http://www.w3.org/1999/xlink" width="174px" height="39px" xmlns="http://www.w3.org/2000/svg">
  <defs>
    <filter x="823px" y="61px" width="174px" height="39px" filterUnits="userSpaceOnUse" id="filter61">
      <feOffset dx="0" dy="0" in="SourceAlpha" result="shadowOffsetInner" />
      <feGaussianBlur stdDeviation="3.5" in="shadowOffsetInner" result="shadowGaussian" />
      <feComposite in2="shadowGaussian" operator="atop" in="SourceAlpha" result="shadowComposite" />
      <feColorMatrix type="matrix" values="0 0 0 0 0.2  0 0 0 0 0.8  0 0 0 0 1  0 0 0 0.749019607843137 0  " in="shadowComposite" />
    </filter>
    <g id="widget62">
      <path d="M 830.5 80.5  A 12 12 0 0 1 842.5 68.5 L 977.5 68.5  A 12 12 0 0 1 989.5 80.5 A 12 12 0 0 1 977.5 92.5 L 842.5 92.5  A 12 12 0 0 1 830.5 80.5 Z " fill-rule="nonzero" fill="#ffffff" stroke="none" />
      <path d="M 830.5 80.5  A 12 12 0 0 1 842.5 68.5 L 977.5 68.5  A 12 12 0 0 1 989.5 80.5 A 12 12 0 0 1 977.5 92.5 L 842.5 92.5  A 12 12 0 0 1 830.5 80.5 Z " stroke-width="1" stroke="#52a8ec" fill="none" />
    </g>
  </defs>
  <g transform="matrix(1 0 0 1 -823 -61 )">
    <use xlink:href="#widget62" filter="url(#filter61)" />
    <use xlink:href="#widget62" />
  </g>
</svg>