<?xml version="1.0" encoding="utf-8"?>
<svg version="1.1" xmlns:xlink="http://www.w3.org/1999/xlink" width="17px" height="17px" xmlns="http://www.w3.org/2000/svg">
  <g transform="matrix(1 0 0 1 -366 -2529 )">
    <path d="M 374.5 2529  C 379.26 2529  383 2532.74  383 2537.5  C 383 2542.26  379.26 2546  374.5 2546  C 369.74 2546  366 2542.26  366 2537.5  C 366 2532.74  369.74 2529  374.5 2529  Z " fill-rule="nonzero" fill="#ffffff" stroke="none" />
    <path d="M 374.5 2529.5  C 378.98 2529.5  382.5 2533.02  382.5 2537.5  C 382.5 2541.98  378.98 2545.5  374.5 2545.5  C 370.02 2545.5  366.5 2541.98  366.5 2537.5  C 366.5 2533.02  370.02 2529.5  374.5 2529.5  Z " stroke-width="1" stroke="#797979" fill="none" />
  </g>
</svg>