<?xml version="1.0" encoding="utf-8"?>
<svg version="1.1" xmlns:xlink="http://www.w3.org/1999/xlink" width="360px" height="60px" xmlns="http://www.w3.org/2000/svg">
  <g transform="matrix(1 0 0 1 -60 -310 )">
    <path d="M 61 315  A 4 4 0 0 1 65 311 L 415 311  A 4 4 0 0 1 419 315 L 419 365  A 4 4 0 0 1 415 369 L 65 369  A 4 4 0 0 1 61 365 L 61 315  Z " fill-rule="nonzero" fill="#ffffff" stroke="none" />
    <path d="M 60.5 315  A 4.5 4.5 0 0 1 65 310.5 L 415 310.5  A 4.5 4.5 0 0 1 419.5 315 L 419.5 365  A 4.5 4.5 0 0 1 415 369.5 L 65 369.5  A 4.5 4.5 0 0 1 60.5 365 L 60.5 315  Z " stroke-width="1" stroke="#d7d7d7" fill="none" stroke-opacity="0.8" />
  </g>
</svg>