<?xml version="1.0" encoding="utf-8"?>
<svg version="1.1" xmlns:xlink="http://www.w3.org/1999/xlink" width="12px" height="12px" viewBox="540 413  12 12" xmlns="http://www.w3.org/2000/svg">
  <path d="M 546 413  C 549.36 413  552 415.64  552 419  C 552 422.36  549.36 425  546 425  C 542.64 425  540 422.36  540 419  C 540 415.64  542.64 413  546 413  Z " fill-rule="nonzero" fill="#ffffff" stroke="none" fill-opacity="0" />
  <path d="M 546 413.5  C 549.08 413.5  551.5 415.92  551.5 419  C 551.5 422.08  549.08 424.5  546 424.5  C 542.92 424.5  540.5 422.08  540.5 419  C 540.5 415.92  542.92 413.5  546 413.5  Z " stroke-width="1" stroke="#797979" fill="none" />
  <path d="M 546 422  C 544.32 422  543 420.68  543 419  C 543 417.32  544.32 416  546 416  C 547.68 416  549 417.32  549 419  C 549 420.68  547.68 422  546 422  " fill-rule="nonzero" fill="#797979" stroke="none" />
</svg>