<?xml version="1.0" encoding="utf-8"?>
<svg version="1.1" xmlns:xlink="http://www.w3.org/1999/xlink" width="15px" height="11px" xmlns="http://www.w3.org/2000/svg">
  <g transform="matrix(1 0 0 1 -54 -464 )">
    <path d="M 14.7290322580645 1.51851851851848  C 14.9096774193548 1.69135802469134  15 1.90123456790127  15 2.14814814814815  C 15 2.39506172839504  14.9096774193548 2.60493827160496  14.7290322580645 2.77777777777783  L 7.72258064516129 9.48148148148152  L 6.40645161290323 10.7407407407408  C 6.2258064516129 10.9135802469136  6.00645161290322 11  5.7483870967742 11  C 5.49032258064516 11  5.27096774193548 10.9135802469136  5.09032258064516 10.7407407407408  L 3.7741935483871 9.48148148148152  L 0.270967741935479 6.12962962962968  C 0.0903225806451644 5.95679012345681  0 5.74691358024688  0 5.5  C 0 5.25308641975312  0.0903225806451644 5.04320987654319  0.270967741935479 4.87037037037032  L 1.58709677419355 3.61111111111109  C 1.76774193548387 3.43827160493822  1.98709677419355 3.35185185185185  2.24516129032259 3.35185185185185  C 2.50322580645161 3.35185185185185  2.72258064516129 3.43827160493822  2.90322580645162 3.61111111111109  L 5.7483870967742 6.34259259259261  L 12.0967741935484 0.259259259259238  C 12.2774193548387 0.0864197530863748  12.4967741935484 0  12.7548387096774 0  C 13.0129032258065 0  13.2322580645161 0.0864197530863748  13.4129032258064 0.259259259259238  L 14.7290322580645 1.51851851851848  Z " fill-rule="nonzero" fill="#00cc00" stroke="none" transform="matrix(1 0 0 1 54 464 )" />
  </g>
</svg>