<?xml version="1.0" encoding="utf-8"?>
<svg version="1.1" xmlns:xlink="http://www.w3.org/1999/xlink" width="230px" height="60px" xmlns="http://www.w3.org/2000/svg">
  <g transform="matrix(1 0 0 1 -1008 -439 )">
    <path d="M 1214.18108897008 439.5  C 1214.18108897008 439.5  1217.74957582367 439.965454806989  1217.74957582367 439.965454806989  C 1217.74957582367 439.965454806989  1237.44852978943 469  1237.44852978943 469  C 1237.44852978943 469  1217.74957582367 498.034545193011  1217.74957582367 498.034545193011  C 1217.74957582367 498.034545193011  1214.18108897008 498.5  1214.18108897008 498.5  C 1214.18108897008 498.5  1008.5 498.5  1008.5 498.5  C 1008.5 498.5  1008.5 439.5  1008.5 439.5  C 1008.5 439.5  1214.18108897008 439.5  1214.18108897008 439.5  Z " fill-rule="nonzero" fill="#ffffff" stroke="none" />
    <path d="M 1214.18108897008 439.5  C 1214.18108897008 439.5  1217.74957582367 439.965454806989  1217.74957582367 439.965454806989  C 1217.74957582367 439.965454806989  1237.44852978943 469  1237.44852978943 469  C 1237.44852978943 469  1217.74957582367 498.034545193011  1217.74957582367 498.034545193011  C 1217.74957582367 498.034545193011  1214.18108897008 498.5  1214.18108897008 498.5  C 1214.18108897008 498.5  1008.5 498.5  1008.5 498.5  C 1008.5 498.5  1008.5 439.5  1008.5 439.5  C 1008.5 439.5  1214.18108897008 439.5  1214.18108897008 439.5  Z " stroke-width="1" stroke="#e4e4e4" fill="none" />
  </g>
</svg>