<?xml version="1.0" encoding="utf-8"?>
<svg version="1.1" xmlns:xlink="http://www.w3.org/1999/xlink" width="310px" height="60px" xmlns="http://www.w3.org/2000/svg">
  <g transform="matrix(1 0 0 1 -235 -439 )">
    <path d="M 523.25296900792 442.5  C 523.25296900792 442.5  523.330604586271 442.507513120486  523.330604586271 442.507513120486  C 523.330604586271 442.507513120486  541.223133851302 469  541.223133851302 469  C 541.223133851302 469  523.330604586271 495.492486879514  523.330604586271 495.492486879514  C 523.330604586271 495.492486879514  523.25296900792 495.5  523.25296900792 495.5  C 523.25296900792 495.5  238.5 495.5  238.5 495.5  C 238.5 495.5  238.5 442.5  238.5 442.5  C 238.5 442.5  523.25296900792 442.5  523.25296900792 442.5  Z " fill-rule="nonzero" fill="#ffffff" stroke="none" />
    <path d="M 522.287410861668 441  C 522.287410861668 441  524.046059763583 441.170191829218  524.046059763583 441.170191829218  C 524.046059763583 441.170191829218  542.841790772173 469  542.841790772173 469  C 542.841790772173 469  524.046059763583 496.829808170782  524.046059763583 496.829808170782  C 524.046059763583 496.829808170782  522.287410861668 497  522.287410861668 497  C 522.287410861668 497  237 497  237 497  C 237 497  237 441  237 441  C 237 441  522.287410861668 441  522.287410861668 441  Z " stroke-width="4" stroke="#9933ff" fill="none" />
  </g>
</svg>