<?xml version="1.0" encoding="utf-8"?>
<svg version="1.1" xmlns:xlink="http://www.w3.org/1999/xlink" width="260px" height="60px" xmlns="http://www.w3.org/2000/svg">
  <g transform="matrix(1 0 0 1 0 -439 )">
    <path d="M 236.233875374584 439.5  C 236.233875374584 439.5  239.754848683183 439.906266150992  239.754848683183 439.906266150992  C 239.754848683183 439.906266150992  259.453730976782 469  259.453730976782 469  C 259.453730976782 469  239.754848683183 498.093733849008  239.754848683183 498.093733849008  C 239.754848683183 498.093733849008  236.233875374584 498.5  236.233875374584 498.5  C 236.233875374584 498.5  0.499999999999998 498.5  0.499999999999998 498.5  C 0.499999999999998 498.5  0.5 439.5  0.5 439.5  C 0.5 439.5  236.233875374584 439.5  236.233875374584 439.5  Z " fill-rule="nonzero" fill="#ffffff" stroke="none" />
    <path d="M 236.233875374584 439.5  C 236.233875374584 439.5  239.754848683183 439.906266150992  239.754848683183 439.906266150992  C 239.754848683183 439.906266150992  259.453730976782 469  259.453730976782 469  C 259.453730976782 469  239.754848683183 498.093733849008  239.754848683183 498.093733849008  C 239.754848683183 498.093733849008  236.233875374584 498.5  236.233875374584 498.5  C 236.233875374584 498.5  0.499999999999998 498.5  0.499999999999998 498.5  C 0.499999999999998 498.5  0.5 439.5  0.5 439.5  C 0.5 439.5  236.233875374584 439.5  236.233875374584 439.5  Z " stroke-width="1" stroke="#797979" fill="none" />
  </g>
</svg>