<?xml version="1.0" encoding="utf-8"?>
<svg version="1.1" xmlns:xlink="http://www.w3.org/1999/xlink" width="20px" height="17px" xmlns="http://www.w3.org/2000/svg">
  <g transform="matrix(1 0 0 1 -578 -602 )">
    <path d="M 5.22926829268293 6.53846153846154  L 2.0780487804878 6.53846153846154  L 8.15609756097561 13.3323317307692  L 5.22926829268293 6.53846153846154  Z M 6.59512195121951 6.53846153846154  L 10 14.4254807692308  L 13.4048780487805 6.53846153846154  L 6.59512195121951 6.53846153846154  Z M 1.88292682926829 5.23076923076923  L 5.25853658536585 5.23076923076923  L 7.24878048780488 1.30769230769231  L 4.69268292682927 1.30769230769231  L 1.88292682926829 5.23076923076923  Z M 14.7707317073171 6.53846153846154  L 11.8439024390244 13.3323317307692  L 17.9219512195122 6.53846153846154  L 14.7707317073171 6.53846153846154  Z M 8.66341463414634 1.30769230769231  L 6.67317073170732 5.23076923076923  L 13.3268292682927 5.23076923076923  L 11.3365853658537 1.30769230769231  L 8.66341463414634 1.30769230769231  Z M 12.7512195121951 1.30769230769231  L 14.7414634146341 5.23076923076923  L 18.1170731707317 5.23076923076923  L 15.3073170731707 1.30769230769231  L 12.7512195121951 1.30769230769231  Z M 15.619512195122 0  C 15.8341463414634 0  16 0.0885416666666654  16.1170731707317 0.265625  L 19.8634146341463 5.49639423076923  C 19.9544715447154 5.61899038461538  19.9967479674797 5.76031650641026  19.990243902439 5.92037259615385  C 19.9837398373984 6.08042868589743  19.9284552845528 6.21834935897436  19.8243902439024 6.33413461538462  L 10.4585365853659 16.7956730769231  C 10.3414634146341 16.931891025641  10.1886178861789 17  10 17  C 9.81138211382114 17  9.65853658536585 16.931891025641  9.54146341463415 16.7956730769231  L 0.175609756097561 6.33413461538462  C 0.0715447154471545 6.21834935897436  0.016260162601626 6.08042868589743  0.00975609756097561 5.92037259615385  C 0.0032520325203252 5.76031650641026  0.0455284552845528 5.61899038461538  0.136585365853659 5.49639423076923  L 3.88292682926829 0.265625  C 4 0.0885416666666654  4.16585365853659 0  4.38048780487805 0  L 15.619512195122 0  Z " fill-rule="nonzero" fill="#000000" stroke="none" transform="matrix(1 0 0 1 578 602 )" />
  </g>
</svg>