<?xml version="1.0" encoding="utf-8"?>
<svg version="1.1" xmlns:xlink="http://www.w3.org/1999/xlink" width="20px" height="18px" xmlns="http://www.w3.org/2000/svg">
  <g transform="matrix(1 0 0 1 -606 -601 )">
    <path d="M 16.4732142857143 9.65625  C 17.8720238095238 8.1875  18.5714285714286 6.796875  18.5714285714286 5.484375  C 18.5714285714286 4.8515625  18.491443452381 4.29296875  18.3314732142857 3.80859375  C 18.1715029761905 3.32421875  17.9668898809524 2.939453125  17.7176339285714 2.654296875  C 17.4683779761905 2.369140625  17.1651785714286 2.13671875  16.8080357142857 1.95703125  C 16.4508928571429 1.77734375  16.1011904761905 1.65625  15.7589285714286 1.59375  C 15.4166666666667 1.53125  15.0520833333333 1.5  14.6651785714286 1.5  C 14.2782738095238 1.5  13.8616071428571 1.599609375  13.4151785714286 1.798828125  C 12.96875 1.998046875  12.5576636904762 2.248046875  12.1819196428571 2.548828125  C 11.8061755952381 2.849609375  11.484375 3.130859375  11.2165178571429 3.392578125  C 10.9486607142857 3.654296875  10.7254464285714 3.89453125  10.546875 4.11328125  C 10.4129464285714 4.28515625  10.2306547619048 4.37109375  10 4.37109375  C 9.76934523809524 4.37109375  9.58705357142857 4.28515625  9.453125 4.11328125  C 9.27455357142857 3.89453125  9.05133928571429 3.654296875  8.78348214285714 3.392578125  C 8.515625 3.130859375  8.19382440476191 2.849609375  7.81808035714286 2.548828125  C 7.44233630952381 2.248046875  7.03125 1.998046875  6.58482142857143 1.798828125  C 6.13839285714286 1.599609375  5.72172619047619 1.5  5.33482142857143 1.5  C 4.94791666666667 1.5  4.58333333333333 1.53125  4.24107142857143 1.59375  C 3.89880952380952 1.65625  3.54910714285714 1.77734375  3.19196428571429 1.95703125  C 2.83482142857143 2.13671875  2.53162202380952 2.369140625  2.28236607142857 2.654296875  C 2.03311011904762 2.939453125  1.82849702380952 3.32421875  1.66852678571429 3.80859375  C 1.50855654761905 4.29296875  1.42857142857143 4.8515625  1.42857142857143 5.484375  C 1.42857142857143 6.796875  2.12425595238095 8.18359375  3.515625 9.64453125  L 10 16.20703125  L 16.4732142857143 9.65625  Z M 18.5825892857143 1.453125  C 19.5275297619048 2.421875  20 3.765625  20 5.484375  C 20 7.2109375  19.1480654761905 8.96875  17.4441964285714 10.7578125  L 10.4910714285714 17.7890625  C 10.3571428571429 17.9296875  10.1934523809524 18  10 18  C 9.80654761904762 18  9.64285714285714 17.9296875  9.50892857142857 17.7890625  L 2.54464285714286 10.734375  C 2.4702380952381 10.671875  2.36793154761905 10.5703125  2.23772321428571 10.4296875  C 2.10751488095238 10.2890625  1.90104166666667 10.033203125  1.61830357142857 9.662109375  C 1.33556547619048 9.291015625  1.08258928571429 8.91015625  0.859375 8.51953125  C 0.636160714285714 8.12890625  0.437127976190476 7.65625  0.262276785714286 7.1015625  C 0.0874255952380952 6.546875  0 6.0078125  0 5.484375  C 0 3.765625  0.472470238095238 2.421875  1.41741071428571 1.453125  C 2.36235119047619 0.484375  3.66815476190476 0  5.33482142857143 0  C 5.79613095238095 0  6.26674107142857 0.0839843749999989  6.74665178571429 0.251953125000001  C 7.2265625 0.419921874999998  7.67299107142857 0.646484374999999  8.0859375 0.931640625  C 8.49888392857143 1.216796875  8.85416666666667 1.484375  9.15178571428571 1.734375  C 9.44940476190476 1.984375  9.73214285714286 2.25  10 2.53125  C 10.2678571428571 2.25  10.5505952380952 1.984375  10.8482142857143 1.734375  C 11.1458333333333 1.484375  11.5011160714286 1.216796875  11.9140625 0.931640625  C 12.3270089285714 0.646484374999999  12.7734375 0.419921874999998  13.2533482142857 0.251953125000001  C 13.7332589285714 0.0839843749999989  14.203869047619 0  14.6651785714286 0  C 16.3318452380952 0  17.6376488095238 0.484375  18.5825892857143 1.453125  Z " fill-rule="nonzero" fill="#000000" stroke="none" transform="matrix(1 0 0 1 606 601 )" />
  </g>
</svg>