<?xml version="1.0" encoding="utf-8"?>
<svg version="1.1" xmlns:xlink="http://www.w3.org/1999/xlink" width="18px" height="20px" xmlns="http://www.w3.org/2000/svg">
  <g transform="matrix(1 0 0 1 -1209 -600 )">
    <path d="M 10.7569060773481 15.8125  C 11.1878453038674 14.9753787878788  11.3701657458564 14.0795454545455  11.3038674033149 13.125  L 12.4309392265193 15.4431818181818  C 12.0036832412523 16.7992424242424  11.2302025782689 17.8977272727273  10.1104972375691 18.7386363636364  C 8.99079189686925 19.5795454545455  7.74217311233886 20  6.3646408839779 20  C 5.21546961325967 20  4.15285451197053 19.7064393939394  3.1767955801105 19.1193181818182  C 2.20073664825046 18.532196969697  1.42725598526704 17.7367424242424  0.856353591160221 16.7329545454545  C 0.285451197053407 15.7291666666667  0 14.6363636363636  0 13.4545454545455  C 0 12.0833333333333  0.384898710865562 10.8333333333333  1.15469613259669 9.70454545454546  C 1.92449355432781 8.57575757575757  2.93554327808471 7.77651515151515  4.1878453038674 7.30681818181818  L 4.37569060773481 8.79545454545455  C 3.47697974217311 9.20454545454545  2.75874769797422 9.83143939393939  2.22099447513812 10.6761363636364  C 1.68324125230203 11.5208333333333  1.41436464088398 12.4469696969697  1.41436464088398 13.4545454545455  C 1.41436464088398 14.8560606060606  1.89871086556169 16.0549242424242  2.86740331491713 17.0511363636364  C 3.83609576427256 18.0473484848485  5.00184162062615 18.5454545454545  6.3646408839779 18.5454545454545  C 7.29281767955801 18.5454545454545  8.14917127071823 18.2992424242424  8.93370165745856 17.8068181818182  C 9.7182320441989 17.3143939393939  10.3259668508287 16.6496212121212  10.7569060773481 15.8125  Z M 15.171270718232 15.3863636363636  L 17.3591160220994 14.2613636363636  L 18 15.5568181818182  L 15.171270718232 17.0113636363636  C 15.0755064456722 17.0643939393939  14.9686924493554 17.0909090909091  14.8508287292818 17.0909090909091  C 14.5561694290976 17.0909090909091  14.3462246777164 16.9583333333333  14.2209944751381 16.6931818181818  L 11.5801104972376 11.2727272727273  L 6.3646408839779 11.2727272727273  C 6.1878453038674 11.2727272727273  6.03130755064457 11.2102272727273  5.89502762430939 11.0852272727273  C 5.75874769797422 10.9602272727273  5.67955801104972 10.8068181818182  5.65745856353591 10.625  L 4.59668508287293 1.77272727272727  C 4.58195211786372 1.64393939393939  4.60405156537753 1.48484848484848  4.66298342541436 1.29545454545455  C 4.76611418047882 0.909090909090908  4.97605893186004 0.596590909090908  5.29281767955801 0.357954545454546  C 5.60957642725599 0.119318181818182  5.96685082872928 0  6.3646408839779 0  C 6.85082872928177 0  7.2670349907919 0.178030303030301  7.61325966850829 0.53409090909091  C 7.95948434622468 0.890151515151514  8.13259668508287 1.31818181818182  8.13259668508287 1.81818181818182  C 8.13259668508287 2.34090909090909  7.94106813996317 2.78598484848485  7.55801104972376 3.15340909090909  C 7.17495395948435 3.52083333333333  6.7329650092081 3.6780303030303  6.23204419889503 3.625  L 6.64088397790055 6.90909090909091  L 11.3149171270718 6.90909090909091  L 11.3149171270718 8.36363636363636  L 6.81767955801105 8.36363636363636  L 6.99447513812155 9.81818181818182  L 12.0220994475138 9.81818181818182  C 12.316758747698 9.81818181818182  12.5267034990792 9.95075757575758  12.6519337016575 10.2159090909091  L 15.171270718232 15.3863636363636  Z " fill-rule="nonzero" fill="#000000" stroke="none" transform="matrix(1 0 0 1 1209 600 )" />
  </g>
</svg>