<?xml version="1.0" encoding="utf-8"?>
<svg version="1.1" xmlns:xlink="http://www.w3.org/1999/xlink" width="72px" height="53px" xmlns="http://www.w3.org/2000/svg">
  <g transform="matrix(1 0 0 1 -100 -131 )">
    <path d="M 47.64375 28.5514914772727  C 47.88125 28.3130918560606  48 28.0307765151515  48 27.7045454545455  C 48 27.3532196969697  47.8875 27.0646306818182  47.6625 26.8387784090909  L 34.4625 13.5887784090909  C 34.2375 13.3629261363636  33.95 13.25  33.6 13.25  C 33.25 13.25  32.9625 13.3629261363636  32.7375 13.5887784090909  L 19.575 26.8011363636364  C 19.325 27.1022727272727  19.2 27.4034090909091  19.2 27.7045454545455  C 19.2 28.0558712121212  19.3125 28.3444602272727  19.5375 28.5703125  C 19.7625 28.7961647727273  20.05 28.9090909090909  20.4 28.9090909090909  L 29 28.9090909090909  L 29 42.1590909090909  C 28.8 42.485321969697  28.91875 42.7676373106061  29.15625 43.0060369318182  C 29.39375 43.2444365530303  29.675 43.3636363636364  30 43.3636363636364  L 37.2 43.3636363636364  C 37.525 43.3636363636364  37.80625 43.2444365530303  38.04375 43.0060369318182  C 38.28125 42.7676373106061  38.4 42.485321969697  38 42.1590909090909  L 38 28.9090909090909  L 46.8 28.9090909090909  C 47.125 28.9090909090909  47.40625 28.7898910984848  47.64375 28.5514914772727  Z M 68.86875 29.5678267045455  C 70.95625 32.1902225378788  72 35.1827651515151  72 38.5454545454545  C 72 42.5355113636364  70.59375 45.9421164772727  67.78125 48.7652698863636  C 64.96875 51.5884232954545  61.575 53  57.6 53  L 16.8 53  C 12.175 53  8.21875 51.3500236742424  4.93125 48.0500710227273  C 1.64375 44.7501183712121  0 40.7788825757576  0 36.1363636363636  C 0 32.874053030303  0.875 29.8626893939394  2.625 27.1022727272727  C 4.375 24.3418560606061  6.725 22.2715435606061  9.675 20.8913352272727  C 9.625 20.1384943181818  9.6 19.5989583333333  9.6 19.2727272727273  C 9.6 13.9526515151515  11.475 9.41051136363637  15.225 5.64630681818182  C 18.975 1.88210227272727  23.5 0  28.8 0  C 32.7 0  36.26875 1.09161931818182  39.50625 3.27485795454545  C 42.74375 5.45809659090909  45.1 8.35653409090909  46.575 11.9701704545455  C 48.35 10.4142992424242  50.425 9.63636363636363  52.8 9.63636363636363  C 55.45 9.63636363636363  57.7125 10.5774147727273  59.5875 12.4595170454545  C 61.4625 14.3416193181818  62.4 16.6126893939394  62.4 19.2727272727273  C 62.4 21.1799242424242  61.8875 22.9114583333333  60.8625 24.4673295454545  C 64.1125 25.2452651515152  66.78125 26.9454308712121  68.86875 29.5678267045455  Z " fill-rule="nonzero" fill="#000000" stroke="none" fill-opacity="0.247058823529412" transform="matrix(1 0 0 1 100 131 )" />
  </g>
</svg>