<?xml version="1.0" encoding="utf-8"?>
<svg version="1.1" xmlns:xlink="http://www.w3.org/1999/xlink" width="339px" height="50px" xmlns="http://www.w3.org/2000/svg">
  <g transform="matrix(1 0 0 1 -633 -70 )">
    <path d="M 952.492176847271 70.5  C 952.492176847271 70.5  955.760341207135 70.7410150707865  955.760341207135 70.7410150707865  C 955.760341207135 70.7410150707865  971.471473655619 95  971.471473655619 95  C 971.471473655619 95  955.760341207135 119.258984929214  955.760341207135 119.258984929214  C 955.760341207135 119.258984929214  952.492176847271 119.5  952.492176847271 119.5  C 952.492176847271 119.5  633.5 119.5  633.5 119.5  C 633.5 119.5  633.5 70.5  633.5 70.5  C 633.5 70.5  952.492176847271 70.5  952.492176847271 70.5  Z " fill-rule="nonzero" fill="#c9c9c9" stroke="none" />
    <path d="M 952.492176847271 70.5  C 952.492176847271 70.5  955.760341207135 70.7410150707865  955.760341207135 70.7410150707865  C 955.760341207135 70.7410150707865  971.471473655619 95  971.471473655619 95  C 971.471473655619 95  955.760341207135 119.258984929214  955.760341207135 119.258984929214  C 955.760341207135 119.258984929214  952.492176847271 119.5  952.492176847271 119.5  C 952.492176847271 119.5  633.5 119.5  633.5 119.5  C 633.5 119.5  633.5 70.5  633.5 70.5  C 633.5 70.5  952.492176847271 70.5  952.492176847271 70.5  Z " stroke-width="1" stroke="#ffffff" fill="none" />
  </g>
</svg>