<?xml version="1.0" encoding="utf-8"?>
<svg version="1.1" xmlns:xlink="http://www.w3.org/1999/xlink" width="12px" height="12px" viewBox="60 62  12 12" xmlns="http://www.w3.org/2000/svg">
  <path d="M 66 62  C 69.36 62  72 64.64  72 68  C 72 71.36  69.36 74  66 74  C 62.64 74  60 71.36  60 68  C 60 64.64  62.64 62  66 62  Z " fill-rule="nonzero" fill="#ffffff" stroke="none" />
  <path d="M 66 62.5  C 69.08 62.5  71.5 64.92  71.5 68  C 71.5 71.08  69.08 73.5  66 73.5  C 62.92 73.5  60.5 71.08  60.5 68  C 60.5 64.92  62.92 62.5  66 62.5  Z " stroke-width="1" stroke="#797979" fill="none" />
  <path d="M 66 71  C 64.32 71  63 69.68  63 68  C 63 66.32  64.32 65  66 65  C 67.68 65  69 66.32  69 68  C 69 69.68  67.68 71  66 71  " fill-rule="nonzero" fill="#797979" stroke="none" />
</svg>