<?xml version="1.0" encoding="utf-8"?>
<svg version="1.1" xmlns:xlink="http://www.w3.org/1999/xlink" width="12px" height="12px" viewBox="60 562  12 12" xmlns="http://www.w3.org/2000/svg">
  <path d="M 66 562  C 69.36 562  72 564.64  72 568  C 72 571.36  69.36 574  66 574  C 62.64 574  60 571.36  60 568  C 60 564.64  62.64 562  66 562  Z " fill-rule="nonzero" fill="#ffffff" stroke="none" />
  <path d="M 66 562.5  C 69.08 562.5  71.5 564.92  71.5 568  C 71.5 571.08  69.08 573.5  66 573.5  C 62.92 573.5  60.5 571.08  60.5 568  C 60.5 564.92  62.92 562.5  66 562.5  Z " stroke-width="1" stroke="#797979" fill="none" />
  <path d="M 66 571  C 64.32 571  63 569.68  63 568  C 63 566.32  64.32 565  66 565  C 67.68 565  69 566.32  69 568  C 69 569.68  67.68 571  66 571  " fill-rule="nonzero" fill="#797979" stroke="none" />
</svg>