<?xml version="1.0" encoding="utf-8"?>
<svg version="1.1" xmlns:xlink="http://www.w3.org/1999/xlink" width="12px" height="12px" viewBox="60 272  12 12" xmlns="http://www.w3.org/2000/svg">
  <path d="M 66 272  C 69.36 272  72 274.64  72 278  C 72 281.36  69.36 284  66 284  C 62.64 284  60 281.36  60 278  C 60 274.64  62.64 272  66 272  Z " fill-rule="nonzero" fill="#ffffff" stroke="none" />
  <path d="M 66 272.5  C 69.08 272.5  71.5 274.92  71.5 278  C 71.5 281.08  69.08 283.5  66 283.5  C 62.92 283.5  60.5 281.08  60.5 278  C 60.5 274.92  62.92 272.5  66 272.5  Z " stroke-width="1" stroke="#797979" fill="none" />
  <path d="M 66 281  C 64.32 281  63 279.68  63 278  C 63 276.32  64.32 275  66 275  C 67.68 275  69 276.32  69 278  C 69 279.68  67.68 281  66 281  " fill-rule="nonzero" fill="#797979" stroke="none" />
</svg>