<?xml version="1.0" encoding="utf-8"?>
<svg version="1.1" xmlns:xlink="http://www.w3.org/1999/xlink" width="12px" height="12px" viewBox="60 343  12 12" xmlns="http://www.w3.org/2000/svg">
  <path d="M 66 343  C 69.36 343  72 345.64  72 349  C 72 352.36  69.36 355  66 355  C 62.64 355  60 352.36  60 349  C 60 345.64  62.64 343  66 343  Z " fill-rule="nonzero" fill="#ffffff" stroke="none" />
  <path d="M 66 343.5  C 69.08 343.5  71.5 345.92  71.5 349  C 71.5 352.08  69.08 354.5  66 354.5  C 62.92 354.5  60.5 352.08  60.5 349  C 60.5 345.92  62.92 343.5  66 343.5  Z " stroke-width="1" stroke="#797979" fill="none" />
  <path d="M 66 352  C 64.32 352  63 350.68  63 349  C 63 347.32  64.32 346  66 346  C 67.68 346  69 347.32  69 349  C 69 350.68  67.68 352  66 352  " fill-rule="nonzero" fill="#797979" stroke="none" />
</svg>