<?xml version="1.0" encoding="utf-8"?>
<svg version="1.1" xmlns:xlink="http://www.w3.org/1999/xlink" width="12px" height="12px" viewBox="60 403  12 12" xmlns="http://www.w3.org/2000/svg">
  <path d="M 66 403  C 69.36 403  72 405.64  72 409  C 72 412.36  69.36 415  66 415  C 62.64 415  60 412.36  60 409  C 60 405.64  62.64 403  66 403  Z " fill-rule="nonzero" fill="#ffffff" stroke="none" />
  <path d="M 66 403.5  C 69.08 403.5  71.5 405.92  71.5 409  C 71.5 412.08  69.08 414.5  66 414.5  C 62.92 414.5  60.5 412.08  60.5 409  C 60.5 405.92  62.92 403.5  66 403.5  Z " stroke-width="1" stroke="#797979" fill="none" />
  <path d="M 66 412  C 64.32 412  63 410.68  63 409  C 63 407.32  64.32 406  66 406  C 67.68 406  69 407.32  69 409  C 69 410.68  67.68 412  66 412  " fill-rule="nonzero" fill="#797979" stroke="none" />
</svg>