<?xml version="1.0" encoding="utf-8"?>
<svg version="1.1" xmlns:xlink="http://www.w3.org/1999/xlink" width="12px" height="12px" viewBox="60 472  12 12" xmlns="http://www.w3.org/2000/svg">
  <path d="M 66 472  C 69.36 472  72 474.64  72 478  C 72 481.36  69.36 484  66 484  C 62.64 484  60 481.36  60 478  C 60 474.64  62.64 472  66 472  Z " fill-rule="nonzero" fill="#ffffff" stroke="none" />
  <path d="M 66 472.5  C 69.08 472.5  71.5 474.92  71.5 478  C 71.5 481.08  69.08 483.5  66 483.5  C 62.92 483.5  60.5 481.08  60.5 478  C 60.5 474.92  62.92 472.5  66 472.5  Z " stroke-width="1" stroke="#797979" fill="none" />
  <path d="M 66 481  C 64.32 481  63 479.68  63 478  C 63 476.32  64.32 475  66 475  C 67.68 475  69 476.32  69 478  C 69 479.68  67.68 481  66 481  " fill-rule="nonzero" fill="#797979" stroke="none" />
</svg>