<?xml version="1.0" encoding="utf-8"?>
<svg version="1.1" xmlns:xlink="http://www.w3.org/1999/xlink" width="12px" height="12px" viewBox="60 453  12 12" xmlns="http://www.w3.org/2000/svg">
  <path d="M 66 453  C 69.36 453  72 455.64  72 459  C 72 462.36  69.36 465  66 465  C 62.64 465  60 462.36  60 459  C 60 455.64  62.64 453  66 453  Z " fill-rule="nonzero" fill="#ffffff" stroke="none" />
  <path d="M 66 453.5  C 69.08 453.5  71.5 455.92  71.5 459  C 71.5 462.08  69.08 464.5  66 464.5  C 62.92 464.5  60.5 462.08  60.5 459  C 60.5 455.92  62.92 453.5  66 453.5  Z " stroke-width="1" stroke="#797979" fill="none" />
  <path d="M 66 462  C 64.32 462  63 460.68  63 459  C 63 457.32  64.32 456  66 456  C 67.68 456  69 457.32  69 459  C 69 460.68  67.68 462  66 462  " fill-rule="nonzero" fill="#797979" stroke="none" />
</svg>