<?xml version="1.0" encoding="utf-8"?>
<svg version="1.1" xmlns:xlink="http://www.w3.org/1999/xlink" width="12px" height="12px" viewBox="60 572  12 12" xmlns="http://www.w3.org/2000/svg">
  <path d="M 66 572  C 69.36 572  72 574.64  72 578  C 72 581.36  69.36 584  66 584  C 62.64 584  60 581.36  60 578  C 60 574.64  62.64 572  66 572  Z " fill-rule="nonzero" fill="#ffffff" stroke="none" fill-opacity="0" />
  <path d="M 66 572.5  C 69.08 572.5  71.5 574.92  71.5 578  C 71.5 581.08  69.08 583.5  66 583.5  C 62.92 583.5  60.5 581.08  60.5 578  C 60.5 574.92  62.92 572.5  66 572.5  Z " stroke-width="1" stroke="#797979" fill="none" />
  <path d="M 66 581  C 64.32 581  63 579.68  63 578  C 63 576.32  64.32 575  66 575  C 67.68 575  69 576.32  69 578  C 69 579.68  67.68 581  66 581  " fill-rule="nonzero" fill="#797979" stroke="none" />
</svg>