<?xml version="1.0" encoding="utf-8"?>
<svg version="1.1" xmlns:xlink="http://www.w3.org/1999/xlink" width="12px" height="12px" viewBox="60 632  12 12" xmlns="http://www.w3.org/2000/svg">
  <path d="M 66 632  C 69.36 632  72 634.64  72 638  C 72 641.36  69.36 644  66 644  C 62.64 644  60 641.36  60 638  C 60 634.64  62.64 632  66 632  Z " fill-rule="nonzero" fill="#ffffff" stroke="none" fill-opacity="0" />
  <path d="M 66 632.5  C 69.08 632.5  71.5 634.92  71.5 638  C 71.5 641.08  69.08 643.5  66 643.5  C 62.92 643.5  60.5 641.08  60.5 638  C 60.5 634.92  62.92 632.5  66 632.5  Z " stroke-width="1" stroke="#797979" fill="none" />
  <path d="M 66 641  C 64.32 641  63 639.68  63 638  C 63 636.32  64.32 635  66 635  C 67.68 635  69 636.32  69 638  C 69 639.68  67.68 641  66 641  " fill-rule="nonzero" fill="#797979" stroke="none" />
</svg>