<?xml version="1.0" encoding="utf-8"?>
<svg version="1.1" xmlns:xlink="http://www.w3.org/1999/xlink" width="12px" height="12px" viewBox="60 613  12 12" xmlns="http://www.w3.org/2000/svg">
  <path d="M 66 613  C 69.36 613  72 615.64  72 619  C 72 622.36  69.36 625  66 625  C 62.64 625  60 622.36  60 619  C 60 615.64  62.64 613  66 613  Z " fill-rule="nonzero" fill="#ffffff" stroke="none" fill-opacity="0" />
  <path d="M 66 613.5  C 69.08 613.5  71.5 615.92  71.5 619  C 71.5 622.08  69.08 624.5  66 624.5  C 62.92 624.5  60.5 622.08  60.5 619  C 60.5 615.92  62.92 613.5  66 613.5  Z " stroke-width="1" stroke="#797979" fill="none" />
  <path d="M 66 622  C 64.32 622  63 620.68  63 619  C 63 617.32  64.32 616  66 616  C 67.68 616  69 617.32  69 619  C 69 620.68  67.68 622  66 622  " fill-rule="nonzero" fill="#797979" stroke="none" />
</svg>