<?xml version="1.0" encoding="utf-8"?>
<svg version="1.1" xmlns:xlink="http://www.w3.org/1999/xlink" width="12px" height="12px" viewBox="60 502  12 12" xmlns="http://www.w3.org/2000/svg">
  <path d="M 66 502  C 69.36 502  72 504.64  72 508  C 72 511.36  69.36 514  66 514  C 62.64 514  60 511.36  60 508  C 60 504.64  62.64 502  66 502  Z " fill-rule="nonzero" fill="#ffffff" stroke="none" fill-opacity="0" />
  <path d="M 66 502.5  C 69.08 502.5  71.5 504.92  71.5 508  C 71.5 511.08  69.08 513.5  66 513.5  C 62.92 513.5  60.5 511.08  60.5 508  C 60.5 504.92  62.92 502.5  66 502.5  Z " stroke-width="1" stroke="#797979" fill="none" />
  <path d="M 66 511  C 64.32 511  63 509.68  63 508  C 63 506.32  64.32 505  66 505  C 67.68 505  69 506.32  69 508  C 69 509.68  67.68 511  66 511  " fill-rule="nonzero" fill="#797979" stroke="none" />
</svg>