<?xml version="1.0" encoding="utf-8"?>
<svg version="1.1" xmlns:xlink="http://www.w3.org/1999/xlink" width="12px" height="12px" viewBox="60 593  12 12" xmlns="http://www.w3.org/2000/svg">
  <path d="M 66 593  C 69.36 593  72 595.64  72 599  C 72 602.36  69.36 605  66 605  C 62.64 605  60 602.36  60 599  C 60 595.64  62.64 593  66 593  Z " fill-rule="nonzero" fill="#ffffff" stroke="none" fill-opacity="0" />
  <path d="M 66 593.5  C 69.08 593.5  71.5 595.92  71.5 599  C 71.5 602.08  69.08 604.5  66 604.5  C 62.92 604.5  60.5 602.08  60.5 599  C 60.5 595.92  62.92 593.5  66 593.5  Z " stroke-width="1" stroke="#797979" fill="none" />
  <path d="M 66 602  C 64.32 602  63 600.68  63 599  C 63 597.32  64.32 596  66 596  C 67.68 596  69 597.32  69 599  C 69 600.68  67.68 602  66 602  " fill-rule="nonzero" fill="#797979" stroke="none" />
</svg>