<?xml version="1.0" encoding="utf-8"?>
<svg version="1.1" xmlns:xlink="http://www.w3.org/1999/xlink" width="12px" height="12px" viewBox="60 592  12 12" xmlns="http://www.w3.org/2000/svg">
  <path d="M 66 592  C 69.36 592  72 594.64  72 598  C 72 601.36  69.36 604  66 604  C 62.64 604  60 601.36  60 598  C 60 594.64  62.64 592  66 592  Z " fill-rule="nonzero" fill="#ffffff" stroke="none" fill-opacity="0" />
  <path d="M 66 592.5  C 69.08 592.5  71.5 594.92  71.5 598  C 71.5 601.08  69.08 603.5  66 603.5  C 62.92 603.5  60.5 601.08  60.5 598  C 60.5 594.92  62.92 592.5  66 592.5  Z " stroke-width="1" stroke="#797979" fill="none" />
  <path d="M 66 601  C 64.32 601  63 599.68  63 598  C 63 596.32  64.32 595  66 595  C 67.68 595  69 596.32  69 598  C 69 599.68  67.68 601  66 601  " fill-rule="nonzero" fill="#797979" stroke="none" />
</svg>