<?xml version="1.0" encoding="utf-8"?>
<svg version="1.1" xmlns:xlink="http://www.w3.org/1999/xlink" width="12px" height="12px" viewBox="60 957  12 12" xmlns="http://www.w3.org/2000/svg">
  <path d="M 66 957  C 69.36 957  72 959.64  72 963  C 72 966.36  69.36 969  66 969  C 62.64 969  60 966.36  60 963  C 60 959.64  62.64 957  66 957  Z " fill-rule="nonzero" fill="#ffffff" stroke="none" fill-opacity="0" />
  <path d="M 66 957.5  C 69.08 957.5  71.5 959.92  71.5 963  C 71.5 966.08  69.08 968.5  66 968.5  C 62.92 968.5  60.5 966.08  60.5 963  C 60.5 959.92  62.92 957.5  66 957.5  Z " stroke-width="1" stroke="#797979" fill="none" />
  <path d="M 66 966  C 64.32 966  63 964.68  63 963  C 63 961.32  64.32 960  66 960  C 67.68 960  69 961.32  69 963  C 69 964.68  67.68 966  66 966  " fill-rule="nonzero" fill="#797979" stroke="none" />
</svg>