<?xml version="1.0" encoding="utf-8"?>
<svg version="1.1" xmlns:xlink="http://www.w3.org/1999/xlink" width="12px" height="12px" viewBox="60 663  12 12" xmlns="http://www.w3.org/2000/svg">
  <path d="M 66 663  C 69.36 663  72 665.64  72 669  C 72 672.36  69.36 675  66 675  C 62.64 675  60 672.36  60 669  C 60 665.64  62.64 663  66 663  Z " fill-rule="nonzero" fill="#ffffff" stroke="none" fill-opacity="0" />
  <path d="M 66 663.5  C 69.08 663.5  71.5 665.92  71.5 669  C 71.5 672.08  69.08 674.5  66 674.5  C 62.92 674.5  60.5 672.08  60.5 669  C 60.5 665.92  62.92 663.5  66 663.5  Z " stroke-width="1" stroke="#797979" fill="none" />
  <path d="M 66 672  C 64.32 672  63 670.68  63 669  C 63 667.32  64.32 666  66 666  C 67.68 666  69 667.32  69 669  C 69 670.68  67.68 672  66 672  " fill-rule="nonzero" fill="#797979" stroke="none" />
</svg>