<?xml version="1.0" encoding="utf-8"?>
<svg version="1.1" xmlns:xlink="http://www.w3.org/1999/xlink" width="12px" height="12px" viewBox="60 887  12 12" xmlns="http://www.w3.org/2000/svg">
  <path d="M 66 887  C 69.36 887  72 889.64  72 893  C 72 896.36  69.36 899  66 899  C 62.64 899  60 896.36  60 893  C 60 889.64  62.64 887  66 887  Z " fill-rule="nonzero" fill="#ffffff" stroke="none" fill-opacity="0" />
  <path d="M 66 887.5  C 69.08 887.5  71.5 889.92  71.5 893  C 71.5 896.08  69.08 898.5  66 898.5  C 62.92 898.5  60.5 896.08  60.5 893  C 60.5 889.92  62.92 887.5  66 887.5  Z " stroke-width="1" stroke="#797979" fill="none" />
  <path d="M 66 896  C 64.32 896  63 894.68  63 893  C 63 891.32  64.32 890  66 890  C 67.68 890  69 891.32  69 893  C 69 894.68  67.68 896  66 896  " fill-rule="nonzero" fill="#797979" stroke="none" />
</svg>