<?xml version="1.0" encoding="utf-8"?>
<svg version="1.1" xmlns:xlink="http://www.w3.org/1999/xlink" width="12px" height="12px" viewBox="60 262  12 12" xmlns="http://www.w3.org/2000/svg">
  <path d="M 66 262  C 69.36 262  72 264.64  72 268  C 72 271.36  69.36 274  66 274  C 62.64 274  60 271.36  60 268  C 60 264.64  62.64 262  66 262  Z " fill-rule="nonzero" fill="#ffffff" stroke="none" fill-opacity="0" />
  <path d="M 66 262.5  C 69.08 262.5  71.5 264.92  71.5 268  C 71.5 271.08  69.08 273.5  66 273.5  C 62.92 273.5  60.5 271.08  60.5 268  C 60.5 264.92  62.92 262.5  66 262.5  Z " stroke-width="1" stroke="#797979" fill="none" />
  <path d="M 66 271  C 64.32 271  63 269.68  63 268  C 63 266.32  64.32 265  66 265  C 67.68 265  69 266.32  69 268  C 69 269.68  67.68 271  66 271  " fill-rule="nonzero" fill="#797979" stroke="none" />
</svg>