<?xml version="1.0" encoding="utf-8"?>
<svg version="1.1" xmlns:xlink="http://www.w3.org/1999/xlink" width="12px" height="12px" viewBox="60 333  12 12" xmlns="http://www.w3.org/2000/svg">
  <path d="M 66 333  C 69.36 333  72 335.64  72 339  C 72 342.36  69.36 345  66 345  C 62.64 345  60 342.36  60 339  C 60 335.64  62.64 333  66 333  Z " fill-rule="nonzero" fill="#ffffff" stroke="none" fill-opacity="0" />
  <path d="M 66 333.5  C 69.08 333.5  71.5 335.92  71.5 339  C 71.5 342.08  69.08 344.5  66 344.5  C 62.92 344.5  60.5 342.08  60.5 339  C 60.5 335.92  62.92 333.5  66 333.5  Z " stroke-width="1" stroke="#797979" fill="none" />
  <path d="M 66 342  C 64.32 342  63 340.68  63 339  C 63 337.32  64.32 336  66 336  C 67.68 336  69 337.32  69 339  C 69 340.68  67.68 342  66 342  " fill-rule="nonzero" fill="#797979" stroke="none" />
</svg>