<?xml version="1.0" encoding="utf-8"?>
<svg version="1.1" xmlns:xlink="http://www.w3.org/1999/xlink" width="12px" height="12px" viewBox="60 413  12 12" xmlns="http://www.w3.org/2000/svg">
  <path d="M 66 413  C 69.36 413  72 415.64  72 419  C 72 422.36  69.36 425  66 425  C 62.64 425  60 422.36  60 419  C 60 415.64  62.64 413  66 413  Z " fill-rule="nonzero" fill="#ffffff" stroke="none" fill-opacity="0" />
  <path d="M 66 413.5  C 69.08 413.5  71.5 415.92  71.5 419  C 71.5 422.08  69.08 424.5  66 424.5  C 62.92 424.5  60.5 422.08  60.5 419  C 60.5 415.92  62.92 413.5  66 413.5  Z " stroke-width="1" stroke="#797979" fill="none" />
  <path d="M 66 422  C 64.32 422  63 420.68  63 419  C 63 417.32  64.32 416  66 416  C 67.68 416  69 417.32  69 419  C 69 420.68  67.68 422  66 422  " fill-rule="nonzero" fill="#797979" stroke="none" />
</svg>