<?xml version="1.0" encoding="utf-8"?>
<svg version="1.1" xmlns:xlink="http://www.w3.org/1999/xlink" width="12px" height="12px" viewBox="60 484  12 12" xmlns="http://www.w3.org/2000/svg">
  <path d="M 66 484  C 69.36 484  72 486.64  72 490  C 72 493.36  69.36 496  66 496  C 62.64 496  60 493.36  60 490  C 60 486.64  62.64 484  66 484  Z " fill-rule="nonzero" fill="#ffffff" stroke="none" fill-opacity="0" />
  <path d="M 66 484.5  C 69.08 484.5  71.5 486.92  71.5 490  C 71.5 493.08  69.08 495.5  66 495.5  C 62.92 495.5  60.5 493.08  60.5 490  C 60.5 486.92  62.92 484.5  66 484.5  Z " stroke-width="1" stroke="#797979" fill="none" />
  <path d="M 66 493  C 64.32 493  63 491.68  63 490  C 63 488.32  64.32 487  66 487  C 67.68 487  69 488.32  69 490  C 69 491.68  67.68 493  66 493  " fill-rule="nonzero" fill="#797979" stroke="none" />
</svg>