<?xml version="1.0" encoding="utf-8"?>
<svg version="1.1" xmlns:xlink="http://www.w3.org/1999/xlink" width="12px" height="12px" viewBox="60 553  12 12" xmlns="http://www.w3.org/2000/svg">
  <path d="M 66 553  C 69.36 553  72 555.64  72 559  C 72 562.36  69.36 565  66 565  C 62.64 565  60 562.36  60 559  C 60 555.64  62.64 553  66 553  Z " fill-rule="nonzero" fill="#ffffff" stroke="none" fill-opacity="0" />
  <path d="M 66 553.5  C 69.08 553.5  71.5 555.92  71.5 559  C 71.5 562.08  69.08 564.5  66 564.5  C 62.92 564.5  60.5 562.08  60.5 559  C 60.5 555.92  62.92 553.5  66 553.5  Z " stroke-width="1" stroke="#797979" fill="none" />
  <path d="M 66 562  C 64.32 562  63 560.68  63 559  C 63 557.32  64.32 556  66 556  C 67.68 556  69 557.32  69 559  C 69 560.68  67.68 562  66 562  " fill-rule="nonzero" fill="#797979" stroke="none" />
</svg>