<?xml version="1.0" encoding="utf-8"?>
<svg version="1.1" xmlns:xlink="http://www.w3.org/1999/xlink" width="12px" height="12px" viewBox="60 482  12 12" xmlns="http://www.w3.org/2000/svg">
  <path d="M 66 482  C 69.36 482  72 484.64  72 488  C 72 491.36  69.36 494  66 494  C 62.64 494  60 491.36  60 488  C 60 484.64  62.64 482  66 482  Z " fill-rule="nonzero" fill="#ffffff" stroke="none" fill-opacity="0" />
  <path d="M 66 482.5  C 69.08 482.5  71.5 484.92  71.5 488  C 71.5 491.08  69.08 493.5  66 493.5  C 62.92 493.5  60.5 491.08  60.5 488  C 60.5 484.92  62.92 482.5  66 482.5  Z " stroke-width="1" stroke="#797979" fill="none" />
  <path d="M 66 491  C 64.32 491  63 489.68  63 488  C 63 486.32  64.32 485  66 485  C 67.68 485  69 486.32  69 488  C 69 489.68  67.68 491  66 491  " fill-rule="nonzero" fill="#797979" stroke="none" />
</svg>