<?xml version="1.0" encoding="utf-8"?>
<svg version="1.1" xmlns:xlink="http://www.w3.org/1999/xlink" width="12px" height="12px" viewBox="60 271  12 12" xmlns="http://www.w3.org/2000/svg">
  <path d="M 66 271  C 69.36 271  72 273.64  72 277  C 72 280.36  69.36 283  66 283  C 62.64 283  60 280.36  60 277  C 60 273.64  62.64 271  66 271  Z " fill-rule="nonzero" fill="#ffffff" stroke="none" fill-opacity="0" />
  <path d="M 66 271.5  C 69.08 271.5  71.5 273.92  71.5 277  C 71.5 280.08  69.08 282.5  66 282.5  C 62.92 282.5  60.5 280.08  60.5 277  C 60.5 273.92  62.92 271.5  66 271.5  Z " stroke-width="1" stroke="#797979" fill="none" />
  <path d="M 66 280  C 64.32 280  63 278.68  63 277  C 63 275.32  64.32 274  66 274  C 67.68 274  69 275.32  69 277  C 69 278.68  67.68 280  66 280  " fill-rule="nonzero" fill="#797979" stroke="none" />
</svg>