<?xml version="1.0" encoding="utf-8"?>
<svg version="1.1" xmlns:xlink="http://www.w3.org/1999/xlink" width="12px" height="12px" viewBox="60 422  12 12" xmlns="http://www.w3.org/2000/svg">
  <path d="M 66 422  C 69.36 422  72 424.64  72 428  C 72 431.36  69.36 434  66 434  C 62.64 434  60 431.36  60 428  C 60 424.64  62.64 422  66 422  Z " fill-rule="nonzero" fill="#ffffff" stroke="none" fill-opacity="0" />
  <path d="M 66 422.5  C 69.08 422.5  71.5 424.92  71.5 428  C 71.5 431.08  69.08 433.5  66 433.5  C 62.92 433.5  60.5 431.08  60.5 428  C 60.5 424.92  62.92 422.5  66 422.5  Z " stroke-width="1" stroke="#797979" fill="none" />
  <path d="M 66 431  C 64.32 431  63 429.68  63 428  C 63 426.32  64.32 425  66 425  C 67.68 425  69 426.32  69 428  C 69 429.68  67.68 431  66 431  " fill-rule="nonzero" fill="#797979" stroke="none" />
</svg>