<?xml version="1.0" encoding="utf-8"?>
<svg version="1.1" xmlns:xlink="http://www.w3.org/1999/xlink" width="319px" height="60px" xmlns="http://www.w3.org/2000/svg">
  <g transform="matrix(1 0 0 1 -515 -625 )">
    <path d="M 812.36382045737 628.5  C 812.36382045737 628.5  812.337539590896 628.497528445159  812.337539590896 628.497528445159  C 812.337539590896 628.497528445159  830.230213508344 655  830.230213508344 655  C 830.230213508344 655  812.337539590896 681.502471554841  812.337539590896 681.502471554841  C 812.337539590896 681.502471554841  812.36382045737 681.5  812.36382045737 681.5  C 812.36382045737 681.5  518.5 681.5  518.5 681.5  C 518.5 681.5  518.5 628.5  518.5 628.5  C 518.5 628.5  812.36382045737 628.5  812.36382045737 628.5  Z " fill-rule="nonzero" fill="#ffffff" stroke="none" />
    <path d="M 811.350754547069 627  C 811.350754547069 627  813.050022623369 627.159805775201  813.050022623369 627.159805775201  C 813.050022623369 627.159805775201  831.845836290482 655  831.845836290482 655  C 831.845836290482 655  813.050022623369 682.840194224799  813.050022623369 682.840194224799  C 813.050022623369 682.840194224799  811.350754547069 683  811.350754547069 683  C 811.350754547069 683  517 683  517 683  C 517 683  517 627  517 627  C 517 627  811.350754547069 627  811.350754547069 627  Z " stroke-width="4" stroke="#9933ff" fill="none" />
  </g>
</svg>