<?xml version="1.0" encoding="utf-8"?>
<svg version="1.1" xmlns:xlink="http://www.w3.org/1999/xlink" width="226px" height="60px" xmlns="http://www.w3.org/2000/svg">
  <g transform="matrix(1 0 0 1 -809 -625 )">
    <path d="M 1011.17405078282 625.5  C 1011.17405078282 625.5  1014.74877691701 625.974521168255  1014.74877691701 625.974521168255  C 1014.74877691701 625.974521168255  1034.44775053855 655  1034.44775053855 655  C 1034.44775053855 655  1014.74877691701 684.025478831745  1014.74877691701 684.025478831745  C 1014.74877691701 684.025478831745  1011.17405078282 684.5  1011.17405078282 684.5  C 1011.17405078282 684.5  809.5 684.5  809.5 684.5  C 809.5 684.5  809.5 625.5  809.5 625.5  C 809.5 625.5  1011.17405078282 625.5  1011.17405078282 625.5  Z " fill-rule="nonzero" fill="#ffffff" stroke="none" />
    <path d="M 1011.17405078282 625.5  C 1011.17405078282 625.5  1014.74877691701 625.974521168255  1014.74877691701 625.974521168255  C 1014.74877691701 625.974521168255  1034.44775053855 655  1034.44775053855 655  C 1034.44775053855 655  1014.74877691701 684.025478831745  1014.74877691701 684.025478831745  C 1014.74877691701 684.025478831745  1011.17405078282 684.5  1011.17405078282 684.5  C 1011.17405078282 684.5  809.5 684.5  809.5 684.5  C 809.5 684.5  809.5 625.5  809.5 625.5  C 809.5 625.5  1011.17405078282 625.5  1011.17405078282 625.5  Z " stroke-width="1" stroke="#d7d7d7" fill="none" />
  </g>
</svg>