<?xml version="1.0" encoding="utf-8"?>
<svg version="1.1" xmlns:xlink="http://www.w3.org/1999/xlink" width="9px" height="9px" xmlns="http://www.w3.org/2000/svg">
  <g transform="matrix(1 0 0 1 -1084 -2970 )">
    <path d="M 1088.5 2971  C 1090.46 2971  1092 2972.54  1092 2974.5  C 1092 2976.46  1090.46 2978  1088.5 2978  C 1086.54 2978  1085 2976.46  1085 2974.5  C 1085 2972.54  1086.54 2971  1088.5 2971  Z " fill-rule="nonzero" fill="#ffffff" stroke="none" />
    <path d="M 1088.5 2971  C 1090.46 2971  1092 2972.54  1092 2974.5  C 1092 2976.46  1090.46 2978  1088.5 2978  C 1086.54 2978  1085 2976.46  1085 2974.5  C 1085 2972.54  1086.54 2971  1088.5 2971  Z " stroke-width="2" stroke="#ffffff" fill="none" />
  </g>
</svg>