<?xml version="1.0" encoding="utf-8"?>
<svg version="1.1" xmlns:xlink="http://www.w3.org/1999/xlink" width="9px" height="9px" xmlns="http://www.w3.org/2000/svg">
  <g transform="matrix(1 0 0 1 -1032 -4623 )">
    <path d="M 1036.5 4624  C 1038.46 4624  1040 4625.54  1040 4627.5  C 1040 4629.46  1038.46 4631  1036.5 4631  C 1034.54 4631  1033 4629.46  1033 4627.5  C 1033 4625.54  1034.54 4624  1036.5 4624  Z " fill-rule="nonzero" fill="#fe4e3c" stroke="none" />
    <path d="M 1036.5 4624  C 1038.46 4624  1040 4625.54  1040 4627.5  C 1040 4629.46  1038.46 4631  1036.5 4631  C 1034.54 4631  1033 4629.46  1033 4627.5  C 1033 4625.54  1034.54 4624  1036.5 4624  Z " stroke-width="2" stroke="#fe4e3c" fill="none" />
  </g>
</svg>