<?xml version="1.0" encoding="utf-8"?>
<svg version="1.1" xmlns:xlink="http://www.w3.org/1999/xlink" width="283px" height="30px" xmlns="http://www.w3.org/2000/svg">
  <g transform="matrix(1 0 0 1 -820 -15 )">
    <path d="M 821 30  A 14 14 0 0 1 835 16 L 1088 16  A 14 14 0 0 1 1102 30 A 14 14 0 0 1 1088 44 L 835 44  A 14 14 0 0 1 821 30 Z " fill-rule="nonzero" fill="#ffffff" stroke="none" />
    <path d="M 820.5 30  A 14.5 14.5 0 0 1 835 15.5 L 1088 15.5  A 14.5 14.5 0 0 1 1102.5 30 A 14.5 14.5 0 0 1 1088 44.5 L 835 44.5  A 14.5 14.5 0 0 1 820.5 30 Z " stroke-width="1" stroke="#d7d7d7" fill="none" stroke-opacity="0.8" />
  </g>
</svg>