<?xml version="1.0" encoding="utf-8"?>
<svg version="1.1" xmlns:xlink="http://www.w3.org/1999/xlink" width="297px" height="44px" xmlns="http://www.w3.org/2000/svg">
  <defs>
    <filter x="813px" y="8px" width="297px" height="44px" filterUnits="userSpaceOnUse" id="filter1">
      <feOffset dx="0" dy="0" in="SourceAlpha" result="shadowOffsetInner" />
      <feGaussianBlur stdDeviation="3.5" in="shadowOffsetInner" result="shadowGaussian" />
      <feComposite in2="shadowGaussian" operator="atop" in="SourceAlpha" result="shadowComposite" />
      <feColorMatrix type="matrix" values="0 0 0 0 0.2  0 0 0 0 0.8  0 0 0 0 1  0 0 0 0.749019607843137 0  " in="shadowComposite" />
    </filter>
    <g id="widget2">
      <path d="M 820.5 30  A 14.5 14.5 0 0 1 835 15.5 L 1088 15.5  A 14.5 14.5 0 0 1 1102.5 30 A 14.5 14.5 0 0 1 1088 44.5 L 835 44.5  A 14.5 14.5 0 0 1 820.5 30 Z " fill-rule="nonzero" fill="#ffffff" stroke="none" />
      <path d="M 820.5 30  A 14.5 14.5 0 0 1 835 15.5 L 1088 15.5  A 14.5 14.5 0 0 1 1102.5 30 A 14.5 14.5 0 0 1 1088 44.5 L 835 44.5  A 14.5 14.5 0 0 1 820.5 30 Z " stroke-width="1" stroke="#52a8ec" fill="none" />
    </g>
  </defs>
  <g transform="matrix(1 0 0 1 -813 -8 )">
    <use xlink:href="#widget2" filter="url(#filter1)" />
    <use xlink:href="#widget2" />
  </g>
</svg>