<?xml version="1.0" encoding="utf-8"?>
<svg version="1.1" xmlns:xlink="http://www.w3.org/1999/xlink" width="20px" height="20px" xmlns="http://www.w3.org/2000/svg">
  <g transform="matrix(1 0 0 1 -245 -470 )">
    <path d="M 255 470  C 260.6 470  265 474.4  265 480  C 265 485.6  260.6 490  255 490  C 249.4 490  245 485.6  245 480  C 245 474.4  249.4 470  255 470  Z " fill-rule="nonzero" fill="#ffffff" stroke="none" />
    <path d="M 255 470.5  C 260.32 470.5  264.5 474.68  264.5 480  C 264.5 485.32  260.32 489.5  255 489.5  C 249.68 489.5  245.5 485.32  245.5 480  C 245.5 474.68  249.68 470.5  255 470.5  Z " stroke-width="1" stroke="#e4e4e4" fill="none" />
  </g>
</svg>