<?xml version="1.0" encoding="utf-8"?>
<svg version="1.1" xmlns:xlink="http://www.w3.org/1999/xlink" width="1260px" height="368px" xmlns="http://www.w3.org/2000/svg">
  <g transform="matrix(1 0 0 1 -80 -1362 )">
    <path d="M 80 1362  L 1340 1362  L 1340 1730  L 80 1730  L 80 1362  " fill-rule="nonzero" fill="#cccccc" stroke="none" />
    <path d="M 106 1388  L 1314 1388  L 1314 1704  L 106 1704  L 106 1388  " fill-rule="nonzero" fill="#ffffff" stroke="none" />
    <path d="M 762.8 1472.4  C 747.344 1472.4  735.2 1460.256  735.2 1444.8  C 735.2 1429.344  747.344 1417.2  762.8 1417.2  C 778.256 1417.2  790.4 1429.344  790.4 1444.8  C 790.4 1460.256  778.256 1472.4  762.8 1472.4  " fill-rule="nonzero" fill="#cccccc" stroke="none" />
    <path d="M 115 1695  L 115 1531.1  L 412.5 1456.6  L 829 1642.77904761905  L 1067 1501.3  L 1305 1642.77904761905  L 1305 1695  L 115 1695  " fill-rule="nonzero" fill="#169bd5" stroke="none" />
  </g>
</svg>